<svg xmlns="http://www.w3.org/2000/svg" viewBox="0 0 1024 930"><g fill="none" stroke-width="2"><path stroke="#f6bd84" d="M136.04 122c-.5 74.22-.11 148.48-.97 222.69q-1.11 95.53-.78 191.06" vector-effect="non-scaling-stroke"/><path stroke="#ffb780" d="M134.29 535.75q-.02 27.62 3.78 49.19c7.27 41.3 25.54 84.27 51.6 118.38q4.29 5.6 15.62 17.18" vector-effect="non-scaling-stroke"/><path stroke="#d7d9da" d="M205.29 720.5q-.5 1.49-1.49 1.55-8.2.54-16.21 2.32-1.44.32-11.31 2.29-5.76 1.15-11.27 3.3c-2.13.84-2.88 2.1-3.57 4.14a.84.82 4.6 0 1-.66.55q-3.4.54-6.69 1.44c-2.84.78-5.22.14-8.09.19a1.29 1.27-66.9 0 0-.85.35l-.71.68a1.08 1.07 24 0 1-.76.29c-1.65-.01-11.6.54-10.24 3.44a.98.97 73.1 0 0 1.03.55l2.77-.45q.45-.07.88.08 5.02 1.69 10.13 3.11c2.3.64 4.63-.13 7.09 1.5a1.68 1.66-26.9 0 0 .91.29c2.7.04 5.04-.59 7.59.38q1.75.66 3.45 1.5" vector-effect="non-scaling-stroke"/><path stroke="#ebeceb" d="M167.29 748q1.41 1.01 1.79 2.44a.38.38 0 0 0 .4.28q2.85-.28 3.76 2.36a.9.89-1.2 0 0 .6.57q1.89.57 2.39 2.61a.19.19 0 0 1-.19.24l-.5-.01q-.47-.01-.2.38.48.68 1.2.94a1.17 1.14 88 0 1 .69.66c.88 2.25 4.03.7 5.63 3.04a1.21 1.21 0 0 1 .19.9q-.93 4.87 3.71 6.3 11.33 3.5 22.99 5.48c2.01.34 20.82 2.61 21.03 3.05a.42.41-6.9 0 0 .3.23q8.14 1.33 16.26 2.74c4.11.71 11.17 2.38 16.97 2.87 2.87.24 5.7 1.27 8.64 1.65 6.3.83 11.34 1.84 17.02 2.87a1.75 1.68-17.6 0 1 .85.42c1.37 1.28 13.31 2.48 16.2 3.15q12.49 2.87 17.23 3.08c8.48.37 16.57 2.36 24.67 3.31 8.3.97 15.86 2.31 23.18 3.23 15.8 1.98 31.52 4.29 47.25 6.77 3.24.51 7.13.53 10.66 1.14 3.23.55 17.47 3.28 17.98 2.88a1.15 1.1-60.6 0 1 .83-.25q7.24.67 14.43 1.74c1.81.27 3.99-.02 6.04.59q2.97.87 4.2.95c17.18 1.15 28.9 2.74 44.83 3.78q12.99.85 39.79 3.36c7.18.67 14.38.78 21.61 1.06 10.25.4 22.82 1.61 34.28 1.93q9.8.27 18.08.96 22.16 1.86 44.39 2.23c.55.01 1.37.33 2.05.4q14.13 1.41 28.27 2.76c4.76.45 8.57.56 13.71 1.67q8.61 1.85 21.47 1.49c2.01-.05 4.16.93 6.04.78q8.07-.67 15.98.73c6.17 1.1 12.28.77 18.43 1.83 7.66 1.31 14.93.89 22.62 2.68q4.13.96 8 1.25c7.14.54 13.12 2.25 20.97 1.9 5.82-.26 12.36.3 18.67-.51q3.26-.42 6.14-.36c6.55.13 12.82-2.13 19.24-3.25 3.06-.53 7.44-1.94 9.65-4.04 12.45-11.84 1.23-24.85-7.33-33.57a.65.61 65.2 0 0-.47-.19h-.27a1.31 1.3-25.8 0 1-.85-.29c-2.21-1.85-5.63-6.01-8.75-5.46" vector-effect="non-scaling-stroke"/><path stroke="#ffc380" d="m870.04 795.75-.08-40.5" vector-effect="non-scaling-stroke"/><path stroke="#f6bd84" d="M869.96 755.25c.12-141.75.12-283.5-.49-425.25q-.03-7.27-1.51-22.5" vector-effect="non-scaling-stroke"/><path stroke="#ffc380" d="M867.96 307.5c-4.38-59.4-32.46-120.26-78.84-158.96-34.49-28.78-75.11-52.11-116.16-69.47C641.08 65.59 606.39 61.32 572 62.74c-15.34.63-39.16 3.76-58.44 5.77q-184.43 19.17-368.81 38.71-3.52.37-6.77.99a1.46 1.46 0 0 0-1.18 1.23q-.94 6.28-.76 12.56" vector-effect="non-scaling-stroke"/><path stroke="#f68105" d="m867.96 307.5-1.85-6.65a.96.96 0 0 0-.75-.69q-1.61-.29-2.69-1.48a.93.91-61 0 1-.22-.8q.46-2.26-.53-4.22-.43-.85-.6.09l-1.43 8.3a.46.46 0 0 0 .31.52l.56.19a.56.56 0 0 1 .3.83l-1.93 3.07a1.22 1.21 11.2 0 1-.83.55q-2.12.38-3.72 1.64c-3.15 2.47-6.5 4.55-9.53 7.16a1.08 1.07 30.5 0 1-.92.23l-.97-.23a.77.76 25.9 0 0-.77.26l-3.09 3.83a1.08 1.06 19 0 1-.84.4h-8.64a.51.51 0 0 1-.51-.47l-.27-3.03" vector-effect="non-scaling-stroke"/><path stroke="#ff7b00" d="M829.04 317c-.36-16.88-1.38-32.85-4.91-48.78-.5-2.27-.48-5.12-.89-6.97q-3.42-15.22-8.8-29.86-1.49-4.05-3.95-7.22a.71.71 0 0 0-1.22.18l-2.21 5.73a1 1 0 0 1-1.86.03q-3.02-7.21-6.02-14.04-.89-2.02-2.63-1.67a.38.37 69.6 0 0-.25.56q5.41 9.31 6.64 20.07" vector-effect="non-scaling-stroke"/><path stroke="#ff9202" d="M802.94 235.03q-3.38-7.39-6.6-14.67c-2.11-4.76-3.08-9.99-5.21-14.33-20.37-41.5-54.52-76.08-94.83-98.29-20.9-11.52-43.24-18.94-66.62-23.47-21.47-4.16-43.46-4.47-65.14-2.75-8.67.68-19.5 2.5-29.28 3.53-41.94 4.41-88.94 10.31-125.73 14.42-19.27 2.16-38.46 4.62-57.78 6.32-1.33.12-2.63.93-4.18.84q-2.48-.15-3.04-.06c-23.58 3.58-49.38 5.65-65.27 7.74q-15.69 2.06-26.24 3.03c-10.88 1-20.99 3.6-32.2 4.19-12.87.69-26.73 3.47-37.89 4.87-2.62.33-5.56-.2-8.21.48q-10.94 2.77-22.21 3.32a.78.77-79.8 0 0-.68.48q-.82 2.05-2.31 3" vector-effect="non-scaling-stroke"/><path stroke="#ff9f11" d="m149.52 133.68-4.64-6.09a1.18 1.17-14.8 0 0-.8-.46l-1.04-.13" vector-effect="non-scaling-stroke"/><path stroke="#ff7b00" d="M143.04 127q.54-2.02-1.04-2.21" vector-effect="non-scaling-stroke"/><path stroke="#f68105" d="M142 124.79q-1.26-.13-2.13-.99a1.05 1.03 63.8 0 0-.86-.3q-2.13.26-2.59-1.76-.05-.24-.14-.01-.07.22-.24.27" vector-effect="non-scaling-stroke"/><path stroke="#ff8602" d="M802.94 235.03q.96 2.46 1.48 5.06c1.09 5.55 2.74 10.79 3.54 16.41" vector-effect="non-scaling-stroke"/><path stroke="#ff9202" d="M807.96 256.5q-5.18.96-8.11-3.56c-3.1-4.8-5.43-8.52-8.48-14.46-2.1-4.08-5.41-7.05-7.4-10.77q-1.74-3.27-2.41-4.15c-6.33-8.33-12.48-16.6-19.73-24.17q-12.47-13.01-25.33-25.62a1.51 1.49 17.1 0 1-.41-.76q-.35-1.7-1.92-2.6-.6-.33-.2.23l.25.36q.66.94-.26.25l-23.42-17.48a1.44 1.4-27 0 0-.91-.28q-2.14.08-4.88-3.98a.4.4 0 0 0-.72.11l-.1.35a.09.09 0 0 1-.14.04c-7.59-6.14-15.69-10.69-24.34-15.71q-5.05-2.93-10.38-5.35c-4.32-1.96-8.71-5.25-14.42-6.3q-2.24-.42-3.98-1.49-7.25-4.46-15.45-6.76c-3.35-.94-6.62-.79-10.07-3.37a.98.97 15.2 0 1-.38-.66c-.1-.8-6.52-2.51-7.51-2.79a1.57 1.54-11.8 0 1-.78-.5l-.45-.56a.77.77 0 0 0-1.08-.11l-.29.24a.82.81-54.9 0 1-.8.14q-6.75-2.49-13.86-3.61-.07-.02-.06.05l.01.29a.21.21 0 0 1-.23.22q-27.77-2.13-55.59-.76a.07.07 0 0 1-.07-.06l-.05-.26a.24.23 83.9 0 0-.23-.19l-3.82.05a1.68 1.62 27.5 0 0-.91.27q-1.98 1.23-4.06 1.44c-9.06.9-18.65.07-27.62 1.28q-7.54 1.01-15.07 2.06c-3.61.5-7.2-.06-10.86.52-9.02 1.41-18.55 1.74-27.34 4.04-8.18 2.14-16.38 2.28-25.02 2.14-4.23-.07-7.91 1.37-12.1 1.98-2.55.38-6.28 1.46-9.76 1.06a1.92 1.86 35.4 0 0-.99.15q-1.82.79-3.75.15-.5-.17-1.03-.13c-4.48.32-9.23-.25-13.4.86-5.47 1.45-10.41 3.26-16.46 3.12q-2.9-.06-5.65.19c-3.16.3-6.07-.37-9.17.79-2.24.85-6.53 2.04-8.96 2.03-3.01 0-5.07.59-7.71.64-5.03.09-11.77 1.56-16.54.37q-4.35-1.08-5.25-1.14-4.92-.34-9.8.46c-16.91 2.75-33.44 5.05-50.98 6.46q-22.08 1.78-44.1 4.14c-18.18 1.95-36.37 3.17-54.53 4.92-2.2.22-4.35.15-6.58.19a.43.42 85.7 0 0-.41.48l1.38 11.01" vector-effect="non-scaling-stroke"/><path stroke="#ff8c02" d="m153.29 152 .5 13.5" vector-effect="non-scaling-stroke"/><path stroke="#ff8602" d="M153.79 165.5c-1.59 61.58-1.5 123.22-2.72 184.8-.55 27.81.92 55.57.41 83.38-.55 30.15.89 65.04-.07 90.51q-.46 12.05.12 23.83a1.27 1.27 0 0 1-1.88 1.17l-5.65-3.15" vector-effect="non-scaling-stroke"/><path stroke="#ffaa13" d="M144 546.04q2.05.07 3.3-1.19a1.3 1.3 0 0 0 .38-.87q.2-4.58.16-6.54-.63-34.05-.09-68.1c.1-6.69-.94-12.85-.41-19.84q1-13.21 1.13-26.46c.06-5.86-.86-14.01-.4-21.16 1.59-24.44.45-49.08.66-73.56q.23-27.66.1-55.32c-.1-20.03-.4-40.11.25-60.13.23-6.94-.25-14.04.16-22.62.54-11.64-1.17-26.59-.64-39.96q.06-1.4-.3-7.05-.31-4.87 1.22-9.56" vector-effect="non-scaling-stroke"/><path stroke="#f67505" d="M142 124.79q-.88 70.63-.76 141.26c.03 20.05-.62 40.08-.54 60.13.02 4.77-.51 11.04-.43 16.43.3 21.96-.49 43.87-.32 65.82.28 36.98-.52 76.81.12 122.24.03 2.33-.3 4.86-.38 7.3q-.02.64-.31.07l-.24-.48a.51.5-20.1 0 0-.58-.26l-2.4.6a.8.78 5.6 0 0-.52.42l-.64 1.3q-.38.79-.44-.09l-.27-3.78" vector-effect="non-scaling-stroke"/><path stroke="#f68105" d="m869.96 755.25-.26.71q-.07.18-.11-.01-2.1-9.57-1.53-19.36a.66.64 13.3 0 0-.41-.64q-1.25-.52-1.45-1.75-.65-4.22-2.62-7.33c-2.75-4.35-2.61-11.04-8.04-12.8a1.51 1.5 80.8 0 1-.76-.55c-1.6-2.14-6.67-10.93-8.59-11.43a1.02 1.02 0 0 1-.69-.61l-1.82-4.41q-.35-.87.57-.72l.96.14a.44.43 87.4 0 0 .49-.54l-2.47-9.17a1.04 1.03-.9 0 0-.77-.74l-3.75-.9a1.02 1.01-7.9 0 1-.67-.5q-2.02-3.62-5.08-6.49-.66-.61-.77.28l-.25 2.06q-.09.72-.19 0-.46-3.2-.21-6.45a1.57 1.54 33.7 0 0-.18-.87q-.83-1.52-.23-3a1.83 1.75-39.6 0 0 .11-.96c-.99-6.35.56-12.28-.45-17.96" vector-effect="non-scaling-stroke"/><path stroke="#ff9311" d="M143.04 127c.01 82.09-1.26 164.16-1.05 246.25q.02 9.98-.11 20-.91 71.87-.98 143.75c0 3.63-.68 7.01 3.1 9.04" vector-effect="non-scaling-stroke"/><path stroke="#ff7500" d="m153.79 165.5.88-2.33a.57.57 0 0 1 1.05-.04c7.35 15.58 18.18 29.27 27.43 43.71q2.27 3.53 3.42 5.99c1.49 3.18 3.34 5.08 5.17 7.81a1.59 1.53 29.8 0 1 .26.89v2.22a.5.5 0 0 0 .5.5h.5a.65.64 83.9 0 1 .63.51q1.18 5.71 5.35 9.42c3.29 2.92 5.1 6.69 7.21 10.38 3.28 5.72 6.9 9.74 11.53 13.99 2.29 2.09 3.31 5.06 5.24 7.54 3.74 4.82 10.1 5.25 13.77 10.57q2.85 4.15 5.36 8.53c3.37 5.86 10.39 9.08 15.19 13.77 2.51 2.45 4.65 4.11 8.29 4.89 5.86 1.26 6.9 6.5 11.98 8.13q2.86.92 5.75 1.75c2.08.6 4.71.75 6.98 1.51 5.02 1.68 9.56 1.91 14.69 1.94 2.38.02 30.18.6 30.32-.22a.29.28 3.7 0 1 .27-.23q4.56-.11 8.77-1.78c2.15-.84 3.61-.6 5.77-.57 4.18.06 8.58-1.12 13.01-1.01 7.14.17 13.36-1.68 19.39-2.04q.49-.03.91-.28c4.37-2.69 10.94-.51 15.88-1.73q7.79-1.92 15.21-2.05 3.39-.06 5.58-2.16a.7.7 0 0 1 .67-.16l1.13.32a.38.37-79.7 0 0 .47-.33c.02-.25-.07-.71.39-.69a.21.2-80 0 1 .18.27q-.36 1.11.79 1.73" vector-effect="non-scaling-stroke"/><path stroke="#ffb780" d="M423.71 306.25c1.42 8.93 9.24 18.56 15.23 25.05q21.23 23.03 49.27 36.64c5.59 2.71 13.58 5.55 19.02 6.1 11.62 1.17 15.72-6.07 10.71-16.23-5.98-12.11-16.14-22.71-26.54-31.68" vector-effect="non-scaling-stroke"/><path stroke="#ff7500" d="M491.4 326.13q2.93-5.66 9.11-6.58a.61.61 0 0 0 .51-.51q.09-.59.98-.58" vector-effect="non-scaling-stroke"/><path stroke="#ffb780" d="M502 318.46c1.87 4.94 13.1 33.64 20.92 29.28 7.77-4.33 3.87-35.42 2.62-43.49m12.17-1.25c-1.96 11.4-5.16 40.42 6.76 47.17a.81.8 16.7 0 1 .41.75q-.05.79-.31 2.33c-1.75 10.41 9.08 12.65 16.63 11.69 28.01-3.57 57.7-21.79 79.03-39.7 11.36-9.53 23.24-21.58 28.02-35.53" vector-effect="non-scaling-stroke"/><path stroke="#ff7500" d="M668.25 289.71q.33-.12.31-.54-.01-.26.17-.07l.28.28a.71.69-62.6 0 1 .19.63c-1.21 6.84 5.11 8.17 10.2 7.63 5.01-.54 8.91.05 14.53-1.92q4.65-1.63 7.21-2.18c6.31-1.34 13.03-1.32 19.09-3.36 7.2-2.43 13.71-3.98 21.27-2.4 6.1 1.27 12.99.54 18.38 2.18 9.01 2.74 14.48 8.79 22.23 15.4 6.07 5.19 15.01.35 22.35.64q2.69.11 5.37.81a.96.96 0 0 0 1.2-.86q.83-12.48-.78-24.96" vector-effect="non-scaling-stroke"/><path stroke="#f67505" d="M829.04 317q-.5 35.22-.2 70.44c.57 64.69.24 124-.52 185.39a.1.09-8.3 0 1-.07.09l-.25.08a.34.33 77.7 0 1-.43-.28l-.28-2.22" vector-effect="non-scaling-stroke"/><path stroke="#ff9311" d="M827.29 570.5q.46-123.84-.12-247.69c-.09-19.45-1.6-40.45-5.68-57.44a.59.58 61.4 0 0-.97-.29l-4.27 4.13" vector-effect="non-scaling-stroke"/><path stroke="#ff8602" d="M816.25 269.21q-1.89 1.38-2.93 3.38a1.6 1.58-34.9 0 0-.17.93c1.75 15.22 3.52 30.23 3.7 45.73.48 43.2 1.23 86.48.43 129.68q-.92 49.75-.72 99.5c.02 6.43-.66 16.3.01 24q.35 4.01 4.14 6.07" vector-effect="non-scaling-stroke"/><path stroke="#ff9311" d="M820.71 578.5q2.42 1.51 5.52.18" vector-effect="non-scaling-stroke"/><path stroke="#f67505" d="M826.23 578.68q1.93 1.64 1.24 4.04c-2.04 7.14 1.76 13.9.51 21.28-.67 3.99.87 10.55.95 16.31.15 10.28 1.35 20.64 1.86 30.94" vector-effect="non-scaling-stroke"/><path stroke="#ff7b00" d="m830.79 651.25-.32 16.77" vector-effect="non-scaling-stroke"/><path stroke="#ff7500" d="M830.47 668.02q-5.14 11.44-6.09 24.02a1.83 1.83 0 0 1-.33.91c-6.12 8.66-10 16.38-15.85 24.06-1.32 1.72-2.85 2.92-4.41 4.44-3.85 3.74-8.32 13.17-14.25 13.49q-3.14.18-5.29-1.48c-2.07-1.59-2.92-4.82-5.47-6.12q-1.44-.74-3.34-1.18-6.73-1.58-10.74-2.08c-1.69-.22-3.24-1.05-4.9-.88-3.5.35-9.79 1.68-12.99.91-2.46-.59-6.53.62-9.35.48q-8.85-.45-17.72-.32-3.6.05-9.33-1.88c-3.63-1.23-6.14-3.71-9.33-5.86-2.76-1.86-5.4-1.7-8.56-2.19-7.6-1.19-14.32-6.65-21.58-7.19-8.05-.59-16.13-2.08-23.97-2.33q-17.61-.54-35.15-2.3-4.51-.45-9.28-.03c-18.11 1.59-36.79 1.36-54.99 1.47-4.07.03-7.82-1.39-11.96-1.4q-13.4-.02-26.82-.01c-4.58 0-8.19-1.84-13.27-.46-5.24 1.42-9.88 1.22-15.04.06-3.75-.84-6.46-.42-10 .15-6.32 1.03-12.2.66-18.36.54-2.59-.04-4.52-1.63-7.43-1.78q-12.84-.66-17.68-1.77-7.92-1.83-21.24-3.07-2.84-.26-5.01.1c-8.8 1.47-17.9 1.49-26.81 1.82-6.22.24-12.52 2.64-17.48 3.25-5.2.63-10.17.23-15.38 1.39-7.26 1.62-12.39 2.68-21.58 5.7q-2.71.89-4.52 1.35c-4.15 1.06-7.76 2.61-11.91 3.31-3.51.59-5.84 1.98-8.15 4.27-3.66 3.64-7.12 6.24-9.6 9.82-1.38 2-3.6 3.12-5.42 4.73a1.35 1.34 73.6 0 0-.45.83c-.43 2.74.84 4.91 2.27 7.61a.45.45 0 0 1-.14.58q-1.85 1.31-2.57 3.48a.53.53 0 0 0 .43.7q1.01.14 2.04.19c3.36.16 4.22 1.36 8.03.59 2.36-.47 4.18 1.57 5.96 2.79 3.03 2.08 7.93 2.78 11.52 3.66a1.88 1.82 73.4 0 1 .84.47c3.42 3.33 6.33 1.86 10.02 2.48 3.62.62 7.21 1.37 10.92 1.55 11.16.54 22.25 1.93 33.34 2.42 7.58.34 15.76.24 23.03 2.61 5.86 1.92 12.35 2.55 17.83 4.16 8.5 2.5 17.73 5.32 26.69 5.18q22.92-.36 45.83-.34.11 0 2.48.32c5.55.77 10.92-1.17 16.75-.18q8 1.36 16.11 2.09a.13.13 0 0 1 .11.1l.07.32a.67.65-2.4 0 0 .56.5q7.59 1 9.95.9c7.56-.31 15.79-.77 21.66 2.44 4.85 2.66 12.37.84 19.22.61 1.95-.07 4.22.3 6.46.08 5.95-.58 11.45.76 17.61-.14q1.2-.18 1.26.61a.53.53 0 0 0 .49.49c5.92.43 11.22-.51 19.22-.03a.44.44 0 0 0 .46-.44c.01-1.76 7.48-.29 8.75-.11 5.24.72 10.37 2.9 15.51 4.61 5.52 1.85 10.83 5.47 16.85 6.65 6.42 1.25 19.38 3.24 26.27.85a1.63 1.59 41.9 0 1 .96-.04c3.9 1.02 7.83-.39 11.62 1.45a1.86 1.79 54.3 0 0 .98.18q13.73-1.24 27.2 1.73a1.34 1.3-12.6 0 1 .75.46q.48.62 1.15.05.08-.07.08.04l-.02.31q-.02.31.23.13l.52-.36a1.37 1.33 25 0 1 .72-.25q7.97-.35 15.15 3.11a.64.64 0 0 1-.12 1.19l-.63.16a.4.4 0 0 0-.26.55l.84 1.86a.59.58 77.2 0 0 .53.34l.34-.01a.63.62-2.5 0 1 .63.57l.16 1.85a.63.63 0 0 0 .56.58q2.95.36 5.92.63c2.34.22 6.25-.05 9.44.79q.48.13.96 0c4.69-1.26 9.57-.64 14.31.07 5.66.84 11.52 3.54 17.23 5.47a.2.19 31 0 1 .08.31l-.17.21a.53.53 0 0 0 .07.75c3.29 2.59 6.9 3.79 10.24 6.4.56.44 4.9 3.25 5.36 2.6a.33.33 0 0 1 .45-.09c3.19 1.97 7.15 3.55 8.9 7.06a1.79 1.75 3.7 0 0 .65.72l5.04 3.18a.75.75 0 0 1 .36.64v.46a.53.52 1.1 0 0 .51.52l5.74.25" vector-effect="non-scaling-stroke"/><path stroke="#ff7b00" d="m821.75 834.46 2.25.33" vector-effect="non-scaling-stroke"/><path stroke="#eba46c" d="M824 834.79c-4.77 1.44-8.35.78-13.13.38-62.08-5.17-124.12-12.09-186.12-18.21" vector-effect="non-scaling-stroke"/><path stroke="#d7915a" d="M624.75 816.96q-96.76-9.74-193.52-19.5-48.13-4.85-96.23-9.92" vector-effect="non-scaling-stroke"/><path stroke="#eba46c" d="m335 787.54-17.25-2.33" vector-effect="non-scaling-stroke"/><path stroke="#d7915a" d="M317.75 785.21q-29.65-5.49-55.84-20.34c-13.9-7.87-27.78-17.17-38.22-27.06q-9.17-8.69-18.4-17.31" vector-effect="non-scaling-stroke"/><path stroke="#ffbd80" d="M487.96 228.25q-1.93 8.39-1.4 17Q488.9 283 502 318.46m-10.6 7.67c-14.3-12.73-37.21-28.25-56.63-30.14-6.29-.61-12.44 3.46-11.06 10.26" vector-effect="non-scaling-stroke"/><path stroke="#ff7b00" d="M807.96 256.5q2.03 12.18 2.29 24.49" vector-effect="non-scaling-stroke"/><path stroke="#ff8100" d="M810.25 280.99q.09 3.98-2.82 5.77a1.17 1.17 0 0 1-.92.14c-5.91-1.6-8.41-2.91-11.18-8.47-1.35-2.7-4.29-5.31-7.48-7.02-7.25-3.87-9.95-12.35-15.51-18.14-3.75-3.91-6.57-8.32-10.75-11.89q-6.66-5.71-11.21-13.26c-1.62-2.7-6.4-1.78-9.2-3.6a1.77 1.72 60.4 0 0-.93-.27h-3.49a.73.72 9.3 0 0-.67.47q-.59 1.67-2.37 1.3c-2.91-.6-3.96-1.07-6.91.04q-2.81 1.06-5.84 1.48a1 .99 11.4 0 0-.69.45s-4.21 1.09-4.92 1.37a1.5 1.45 42.4 0 1-.96.03q-3-.93-5.93.13-.45.16-.77.52c-3.66 4.18-6.4 2.31-10.7 4.1-3.19 1.33-5.54 3.65-8.51 4.87a1.85 1.82-51.5 0 1-.99.12l-3.61-.57a1.4 1.4 0 0 0-.95.19c-5.62 3.45-1.79 9.55-4.95 12.46a.78.78 0 0 1-.81.14q-1.6-.66-2.92-1.75a1.51 1.46 66.8 0 0-.74-.31q-3.48-.39-6.8.61c-4.17 1.24-5.65.61-9.22-1.35q-3.76-2.06-9.2-.87a.06.06 0 0 0-.05.06v.26a.18.17 86.4 0 1-.15.18c-4.2.54-6.83-.92-10.37 2.02q-1.6 1.32-4.02 1.95a1.26 1.21-37 0 1-.92-.11c-3.86-2.11-5.64-1.46-9.81-2.01-5.14-.68-8.58-6.05-14.48-3.96a1.26 1.21-41.4 0 1-.91-.04c-2.44-1.12-6.16-3.23-8.54-1.1q-.58.52-.38-.23.63-2.29-.68-4.18-.62-.91-.89.16l-.4 1.59q-.08.35-.23.02-.84-1.81-1.18-3.79" vector-effect="non-scaling-stroke"/><path stroke="#ffc380" d="M595.29 238.5q.57-8.86-1.09-17.59c-3.7-19.45-17.87-10.91-25.06-1.25-17.02 22.89-27.05 55.05-31.43 83.34" vector-effect="non-scaling-stroke"/><path stroke="#ff7b00" d="m537.71 303-1.08 2.38a.54.53 17 0 1-.58.3l-6.44-1.09q-.41-.07-.73-.32l-1.21-.94a.38.37 26.3 0 0-.59.19q-.27.99-1.54.73" vector-effect="non-scaling-stroke"/><path stroke="#ffc380" d="M525.54 304.25c-2.28-14.96-16.01-77.79-32.59-81.51a1.37 1.35 37.1 0 0-.93.12q-3.25 1.69-4.06 5.39" vector-effect="non-scaling-stroke"/><path stroke="#ff8100" d="m487.96 228.25-.42-.13a.43.42-82.5 0 0-.54.42l.01.55q.02.6-.24.06-.22-.46-.2-.98.02-.77-.33-.09l-.39.76a.4.4 0 0 1-.6.14l-.72-.57a.61.61 0 0 1-.23-.6q.36-1.96-.1-3.89a.88.86-89.6 0 0-.63-.65q-8.53-2.32-17.36-2.96c-4.39-.31-8.9-2.11-13.01-2.13-2.46-.02-4.38 2.21-6.78 2.65q-3.34.62-6.74.75c-3.13.11-5.96-1.48-9.71-.33a1.1 1.08-38.2 0 1-.89-.1q-2.36-1.37-5.84-.87c-5.57.79-13.34-1.23-20.09-.21-4.42.67-9.03.78-13.5 1.18-3.04.27-5.61-1.26-8.9-1.02-3.42.24-7.26-1.46-11.57-.74q-3.78.64-5.3.46-3.84-.45-7.12-2.64c-1.28-.85-19.49-.13-21.89.31q-4.07.75-8.09 2.63-1.57.73-3.38.19a1.43 1.42 41.7 0 0-.94.05c-4.76 1.94-7.29-.18-11.39-1.12-10.71-2.45-22.56-3.57-34.21-5.73-4.42-.82-5.39-4.54-8.86-6.33q-5.63-2.89-11.63-1.16a1.31 1.31 0 0 1-.96-.1l-8.37-4.25a2 1.99 56 0 0-1.08-.21q-1.33.11-2.31-.64a1.71 1.65-23.1 0 0-.89-.34c-2.98-.29-5.2-1.95-7.78-2.48q-2.55-.51-5.09-.97c-3.68-.67-5.7 2.68-9.39.64a1.9 1.82 57.6 0 0-.93-.23c-3.92.07-5.84-2.61-9.63-2.13a1.39 1.36 57.5 0 1-.91-.21c-3.93-2.5-4.27-6.81-8.65-9.44a1.42 1.41 5.8 0 1-.6-.73q-1.26-3.57-2.84-4.25-7.46-3.2-14.71-6.87c-2.09-1.06-4.11-.72-6.36-1.36a1.4 1.38-8.8 0 1-.76-.55c-2.38-3.48-6.3-7.15-10.92-5.81q-.54.16-.17-.26l.22-.24a.27.26 51.5 0 0 .03-.31c-1.3-2.11-2.55-4.69-5.58-2.94a.87.86 75 0 0-.43.75l-.01 2.28q0 .88-.31.06l-.63-1.63q-.12-.3-.21.01l-.1.34q-.43 1.43-.31-.06l.29-3.6a.34.34 0 0 0-.35-.37l-.28.01a.27.27 0 0 1-.26-.33q.54-2.25-.66-4.19a1.35 1.35 0 0 1-.18-.97q.51-2.61-1.96-2.77" vector-effect="non-scaling-stroke"/><path stroke="#ebb06c" d="m870.04 795.75-.1 7.68a1.03 1-18.3 0 1-.41.79q-14.87 10.89-29.96 21.34-9.49 6.57-15.57 9.23" vector-effect="non-scaling-stroke"/><path stroke="#ff8100" d="M821.75 834.46q1.37-.12 2.74-.43 1.28-.3-.03-.29l-2.44.02q-.35 0-.11-.26.43-.47-.06-.88a.61.61 0 0 1-.01-.91l2.53-2.33a1.88 1.81-70 0 1 .92-.45c1.32-.21 3.94-2.08 2.14-3.5a.59.58 41.9 0 0-.78.04l-.34.34a.56.55 45.4 0 1-.8-.01c-1.22-1.26-5.91-3.86-4.39-5.74a.81.78-38.2 0 0 .11-.81c-1.88-4.38-1.58-11.77-1.45-16.5.04-1.62-1.24-3.81-1.28-6.07-.09-5.31-1.82-9.79.66-15.46q.2-.45.17-.95-.44-5.8 1.41-11.14c2.41-6.97 3.03-13.51 3.16-20.84.04-2.71 1.18-5.13 1.9-7.7a1.83 1.78-46.4 0 0-.01-.97l-.35-1.26a1.69 1.64 46.4 0 1 .01-.93q2.5-8.07 1.52-16.34c-.44-3.75 1.93-6.18 1.36-10.52-.1-.75-.81-4.88.02-5.12a.74.73-89.1 0 0 .48-.47c1.03-3.15 2.95-7.05 2.27-10.38-.58-2.88-2.03-6.07-.66-8.92a1.45 1.43-39.3 0 0 .1-.93c-1.42-5.92.38-10.8-.07-16.73" vector-effect="non-scaling-stroke"/><path stroke="#f69915" d="M827.29 570.5q.49 4.5-1.06 8.18" vector-effect="non-scaling-stroke"/><path stroke="#ffaa13" d="M820.71 578.5c-.39-9.53-.52-19.07-.94-28.6-.26-5.88.77-12.61.69-17.59q-.35-20.79-.16-29.62c.17-7.68-.52-16.51-.59-22.25-.11-9.15-.19-16.17.19-27.24.3-8.8-1.2-17.59-.97-26.06q.54-19.83.2-39.66c-.13-7.94 1.23-15.72.66-23.73-.31-4.45.19-10.58.21-13.37.14-16.76.65-33.83-.07-50.32q-.74-16.94-1.88-28.87-.13-1.4-1.8-1.98" vector-effect="non-scaling-stroke"/><path stroke="#ffbd80" d="M595.29 238.5c-.81 24.82-7.73 50.13-17.35 73.02a.29.29 0 0 0 .45.35c19.33-14.8 40.75-27.11 64.47-33.35 8.51-2.24 28.85-4.61 25.39 11.19" vector-effect="non-scaling-stroke"/><path stroke="#c3c5c6" d="M317.75 785.21c-6.26 2.02-10.35-1.82-15.74-.49-2.59.63-5.45-1-7.24-1.43-8.51-2.03-17.62-2.97-25.62-4.75q-13.52-3-27.22-5.1c-3.84-.59-7.93-1.68-11.67-2.24q-10.49-1.56-19.87-4.65c-3.06-1-6.57-.97-9.83-2.1-4.92-1.71-9.9-1.74-14.88-2.96a1.09 1.05 82.1 0 1-.7-.55c-1.18-2.29-3.52-2.3-5.77-3.05a1.24 1.24 0 0 1-.71-.61q-.97-1.92-1.92-3.85c-.76-1.54-.45-3.34-1.91-4.87a.98.97-25.9 0 0-.86-.29q-3.32.48-6.52-.27M335 787.54q-.41.09-.71.36a.37.36 36.9 0 0 .09.6c4.62 2.25 7.62 2.38 13.34 2.59 4.46.17 8.45 1.96 13.12 2.26q4.01.26 6.69.83 3.67.77 6.73 1.03 15.88 1.36 29.9 3.94c4.29.79 8.97.69 13.46 1.33 6.31.88 12.47.86 18.65 1.91q6.96 1.19 13.97 2.07c8.07 1.03 20.25 3.07 30.58 3.44 4.39.15 9.19.76 15.56 1.96 4.05.77 8.49.39 11.81.66q13.37 1.07 26.71 2.32c4.39.42 10.31.37 15.45 1.12q5.18.76 8.88.86c1.06.03 9.07.18 9.3.67a.32.3 78.4 0 0 .26.18q17.22 1.28 34.48 1.73c1.48.04 3.41-.97 4.69.33a1.21 1.2-22.8 0 0 .84.34c3.22-.05 9.96 1.38 13.37-.76q.43-.27.94-.29l1.64-.06" vector-effect="non-scaling-stroke"/><path stroke="#ebeceb" d="m145.42 733.03.25-.08q.64-.21-.03-.17-1.26.08-2.42.33-2.48.55.48.78 1.06.09 1.55-.73a.36.28-75.3 0 1 .17-.13" vector-effect="non-scaling-stroke"/><path stroke="#ffb780" d="M341.49 458.25q11.57-3.92 17.37-13.61c6.33-10.59 6.53-28.29-.39-38.88-7.91-12.1-22.33-15.65-35.98-15.98q-26.62-.65-53.33-.66a.52.52 0 0 0-.52.5q-1.95 64.53-3.71 129.07-.17 5.92-.01 8.09a.58.58 0 0 0 .54.53q21.19 1.29 42.38 2.24c15.27.69 25.84 1.34 37.36-3.83q17.39-7.81 19.91-27.96c2.56-20.44-4.59-31.93-23.62-38.81a.37.37 0 0 1 0-.7m74.98-61.98c-33.62 14.16-43.16 52.64-37.13 85.66 9.71 53.08 65.59 65.24 110.55 54.21a.91.91 0 0 0 .69-.92l-1.28-28.91a.88.88 0 0 0-1.2-.79c-33.59 12.77-72.05 4.64-75.15-37.77-1.13-15.44 4.34-32.91 16.85-42.46 17.15-13.09 41.73-7.02 58.44 3.2a.33.32-71.7 0 0 .49-.25l2.96-29.96a.62.61 13.5 0 0-.4-.64c-24.48-9.22-50.34-11.68-74.82-1.37m99.23 144.02a.61.61 0 0 0 .58.61l35.54 1.76a.61.61 0 0 0 .64-.61l.56-147.89a.61.61 0 0 0-.61-.62l-35.04-.36a.61.61 0 0 0-.61.6l-1.06 146.51m-42.38 23.07c-1.23-.34-4.19-.7-5 .2q-3.73 4.2-7.1 8.78a.57.57 0 0 0 .44.9c4.26.12 9.14-6.38 11.81-9.37a.31.31 0 0 0-.15-.51m-16.08 43.03a.51.51 0 0 1 .55-.5l20.09 1.48a.51.51 0 0 0 .54-.49l.12-3.99a.51.51 0 0 0-.47-.53l-20.35-1.56a.51.51 0 0 1-.47-.52l.33-19.21a.51.51 0 0 1 .54-.5l21.81 1.35a.51.51 0 0 0 .54-.5l.12-3.97a.51.51 0 0 0-.47-.52l-27.76-1.82a.51.51 0 0 0-.55.5l-.65 57.07a.51.51 0 0 0 .47.52l28.57 2.15a.51.51 0 0 0 .55-.51v-4.16a.51.51 0 0 0-.47-.5l-22.84-1.65a.51.51 0 0 1-.47-.51l.27-21.63m71.44-4.49c-5.76-6.35-12.94-9.74-19.98-2.27-6.64 7.05-6.14 22.29-2.94 29.85 3.81 8.99 16.26 14.36 23.02 5.4a.33.33 0 0 1 .59.13l.68 3.55a.7.69 87.6 0 0 .6.56l3.57.4a.48.48 0 0 0 .53-.49q-.55-29.46-.07-58.91a.53.53 0 0 0-.48-.54l-4.26-.39a.63.62 2.5 0 0-.68.62l-.03 21.88q0 .82-.55.21m134.613-11.99a1.61 1.61 0 0 0-1.585-1.636l-3.02-.047a1.61 1.61 0 0 0-1.635 1.584l-.066 4.2a1.61 1.61 0 0 0 1.585 1.635l3.02.047a1.61 1.61 0 0 0 1.635-1.584l.066-4.2M545.26 605.03c8.67-4.31 21.46-4.24 19.75 9.69a1.57 1.56 7.6 0 1-1.77 1.35c-7.36-1.04-19.38-.56-21.96 8.06-4.61 15.36 13.25 23.11 23.75 13.8a.54.54 0 0 1 .89.29l.67 3.04a.97.97 0 0 0 .83.75l3.93.46a.52.51 88.3 0 0 .56-.6q-2.22-14-1.39-22.38c.97-9.84-.13-19.25-11.51-21.14q-7.96-1.33-15.69 1.79a.65.64 71.8 0 0-.38.77l.94 3.5a.98.97 69.1 0 0 1.38.62m58.94 36.51.36 19.33a.59.59 0 0 0 .55.58l3.14.27a1.67 1.66 2 0 0 1.81-1.68q-.35-28.53.35-57.04a.46.45-86.7 0 0-.41-.47l-3.34-.34a.77.77 0 0 0-.82.58l-1.07 4.27a.71.71 0 0 1-1.3.19c-7.34-12.39-21.71-6.62-24.59 5.95-2.27 9.94-1.19 23.28 7.43 29.48q7.59 5.46 17.49-1.33.39-.27.4.21m39.17 1.93 1.11 3.97a.86.86 0 0 0 .73.63l3.4.43a.59.59 0 0 0 .65-.63c-1.13-13.59-.95-26.53-.8-42.19a.68.67.4 0 0-.68-.68h-4.43a.69.69 0 0 0-.69.7q.15 12.83.09 25.65c-.06 13.47-16.92 16.85-18.26 3.88q-1.02-9.93-.39-31.18a.56.56 0 0 0-.53-.58l-4.48-.28a.55.54-88 0 0-.57.54q-.06 14.01.01 28.01c.05 8.63 4.23 15.68 13.38 16.28 4.2.28 7.34-1.64 9.75-4.87q1.18-1.58 1.71.32m19.767-36.76a.66.66 0 0 0-.662-.658l-4.4.016a.66.66 0 0 0-.658.662l.146 41.84a.66.66 0 0 0 .662.657l4.4-.015a.66.66 0 0 0 .658-.662l-.146-41.84m16.924 36.337a.26.26 0 0 0-.256-.263l-6.22-.087a.26.26 0 0 0-.263.256l-.103 7.36a.26.26 0 0 0 .256.263l6.22.087a.26.26 0 0 0 .263-.256l.103-7.36" vector-effect="non-scaling-stroke"/><path stroke="#ffb780" d="M328.93 423.09c-3.14-8.29-21.79-7.62-28.64-7.53a.47.47 0 0 0-.46.46l-.81 27.71a.53.53 0 0 0 .48.54c12.89 1.28 37.59.28 29.43-21.18m-30.53 79.22q7.72.82 15.42.68c11.89-.21 20.79-7.2 18.02-20.07-3.09-14.31-22.17-13.68-32.99-13.27a.48.48 0 0 0-.47.47l-.88 31.16a1.01 1.01 0 0 0 .9 1.03m215.3 129.74c5.25 5.24 13.33 2.62 15.09-3.81 1.28-4.66.88-17.35-.83-21.22-1.9-4.28-6.2-7.73-11.1-6.53-7.14 1.75-8.09 12.02-7.7 18.23.35 5.62.78 9.59 4.54 13.33m32.95-4.81c-2.27 12.56 17.86 14.35 18.61 2.26q.18-2.97-.35-8.11a.67.67 0 0 0-.55-.59c-5.83-1.02-16.24-1.73-17.71 6.44m45.36-21.91c-14.04 2.5-10.41 44.43 8.5 33.13q3.71-2.22 3.73-4.95c.03-5.62 1.17-16.14-1.07-21.1-1.97-4.36-6.13-7.97-11.16-7.08" vector-effect="non-scaling-stroke"/></g><path fill="#fff" d="M0 0h1024v930H0V0Zm136.04 122c-.5 74.22-.11 148.48-.97 222.69q-1.11 95.53-.78 191.06-.02 27.62 3.78 49.19c7.27 41.3 25.54 84.27 51.6 118.38q4.29 5.6 15.62 17.18-.5 1.49-1.49 1.55-8.2.54-16.21 2.32-1.44.32-11.31 2.29-5.76 1.15-11.27 3.3c-2.13.84-2.88 2.1-3.57 4.14a.84.82 4.6 0 1-.66.55q-3.4.54-6.69 1.44c-2.84.78-5.22.14-8.09.19a1.29 1.27-66.9 0 0-.85.35l-.71.68a1.08 1.07 24 0 1-.76.29c-1.65-.01-11.6.54-10.24 3.44a.98.97 73.1 0 0 1.03.55l2.77-.45q.45-.07.88.08 5.02 1.69 10.13 3.11c2.3.64 4.63-.13 7.09 1.5a1.68 1.66-26.9 0 0 .91.29c2.7.04 5.04-.59 7.59.38q1.75.66 3.45 1.5 1.41 1.01 1.79 2.44a.38.38 0 0 0 .4.28q2.85-.28 3.76 2.36a.9.89-1.2 0 0 .6.57q1.89.57 2.39 2.61a.19.19 0 0 1-.19.24l-.5-.01q-.47-.01-.2.38.48.68 1.2.94a1.17 1.14 88 0 1 .69.66c.88 2.25 4.03.7 5.63 3.04a1.21 1.21 0 0 1 .19.9q-.93 4.87 3.71 6.3 11.33 3.5 22.99 5.48c2.01.34 20.82 2.61 21.03 3.05a.42.41-6.9 0 0 .3.23q8.14 1.33 16.26 2.74c4.11.71 11.17 2.38 16.97 2.87 2.87.24 5.7 1.27 8.64 1.65 6.3.83 11.34 1.84 17.02 2.87a1.75 1.68-17.6 0 1 .85.42c1.37 1.28 13.31 2.48 16.2 3.15q12.49 2.87 17.23 3.08c8.48.37 16.57 2.36 24.67 3.31 8.3.97 15.86 2.31 23.18 3.23 15.8 1.98 31.52 4.29 47.25 6.77 3.24.51 7.13.53 10.66 1.14 3.23.55 17.47 3.28 17.98 2.88a1.15 1.1-60.6 0 1 .83-.25q7.24.67 14.43 1.74c1.81.27 3.99-.02 6.04.59q2.97.87 4.2.95c17.18 1.15 28.9 2.74 44.83 3.78q12.99.85 39.79 3.36c7.18.67 14.38.78 21.61 1.06 10.25.4 22.82 1.61 34.28 1.93q9.8.27 18.08.96 22.16 1.86 44.39 2.23c.55.01 1.37.33 2.05.4q14.13 1.41 28.27 2.76c4.76.45 8.57.56 13.71 1.67q8.61 1.85 21.47 1.49c2.01-.05 4.16.93 6.04.78q8.07-.67 15.98.73c6.17 1.1 12.28.77 18.43 1.83 7.66 1.31 14.93.89 22.62 2.68q4.13.96 8 1.25c7.14.54 13.12 2.25 20.97 1.9 5.82-.26 12.36.3 18.67-.51q3.26-.42 6.14-.36c6.55.13 12.82-2.13 19.24-3.25 3.06-.53 7.44-1.94 9.65-4.04 12.45-11.84 1.23-24.85-7.33-33.57a.65.61 65.2 0 0-.47-.19h-.27a1.31 1.3-25.8 0 1-.85-.29c-2.21-1.85-5.63-6.01-8.75-5.46l-.08-40.5c.12-141.75.12-283.5-.49-425.25q-.03-7.27-1.51-22.5c-4.38-59.4-32.46-120.26-78.84-158.96-34.49-28.78-75.11-52.11-116.16-69.47C641.08 65.59 606.39 61.32 572 62.74c-15.34.63-39.16 3.76-58.44 5.77q-184.43 19.17-368.81 38.71-3.52.37-6.77.99a1.46 1.46 0 0 0-1.18 1.23q-.94 6.28-.76 12.56Zm9.38 611.03.25-.08q.64-.21-.03-.17-1.26.08-2.42.33-2.48.55.48.78 1.06.09 1.55-.73a.36.28-75.3 0 1 .17-.13Z"/><path fill="#ff8700" d="m867.96 307.5-1.85-6.65a.96.96 0 0 0-.75-.69q-1.61-.29-2.69-1.48a.93.91-61 0 1-.22-.8q.46-2.26-.53-4.22-.43-.85-.6.09l-1.43 8.3a.46.46 0 0 0 .31.52l.56.19a.56.56 0 0 1 .3.83l-1.93 3.07a1.22 1.21 11.2 0 1-.83.55q-2.12.38-3.72 1.64c-3.15 2.47-6.5 4.55-9.53 7.16a1.08 1.07 30.5 0 1-.92.23l-.97-.23a.77.76 25.9 0 0-.77.26l-3.09 3.83a1.08 1.06 19 0 1-.84.4h-8.64a.51.51 0 0 1-.51-.47l-.27-3.03c-.36-16.88-1.38-32.85-4.91-48.78-.5-2.27-.48-5.12-.89-6.97q-3.42-15.22-8.8-29.86-1.49-4.05-3.95-7.22a.71.71 0 0 0-1.22.18l-2.21 5.73a1 1 0 0 1-1.86.03q-3.02-7.21-6.02-14.04-.89-2.02-2.63-1.67a.38.37 69.6 0 0-.25.56q5.41 9.31 6.64 20.07-3.38-7.39-6.6-14.67c-2.11-4.76-3.08-9.99-5.21-14.33-20.37-41.5-54.52-76.08-94.83-98.29-20.9-11.52-43.24-18.94-66.62-23.47-21.47-4.16-43.46-4.47-65.14-2.75-8.67.68-19.5 2.5-29.28 3.53-41.94 4.41-88.94 10.31-125.73 14.42-19.27 2.16-38.46 4.62-57.78 6.32-1.33.12-2.63.93-4.18.84q-2.48-.15-3.04-.06c-23.58 3.58-49.38 5.65-65.27 7.74q-15.69 2.06-26.24 3.03c-10.88 1-20.99 3.6-32.2 4.19-12.87.69-26.73 3.47-37.89 4.87-2.62.33-5.56-.2-8.21.48q-10.94 2.77-22.21 3.32a.78.77-79.8 0 0-.68.48q-.82 2.05-2.31 3l-4.64-6.09a1.18 1.17-14.8 0 0-.8-.46l-1.04-.13q.54-2.02-1.04-2.21-1.26-.13-2.13-.99a1.05 1.03 63.8 0 0-.86-.3q-2.13.26-2.59-1.76-.05-.24-.14-.01-.07.22-.24.27-.18-6.28.76-12.56a1.46 1.46 0 0 1 1.18-1.23q3.25-.62 6.77-.99 184.38-19.54 368.81-38.71c19.28-2.01 43.1-5.14 58.44-5.77 34.39-1.42 69.08 2.85 100.96 16.33 41.05 17.36 81.67 40.69 116.16 69.47 46.38 38.7 74.46 99.56 78.84 158.96Z"/><path fill="#ff9d04" d="M802.94 235.03q.96 2.46 1.48 5.06c1.09 5.55 2.74 10.79 3.54 16.41q-5.18.96-8.11-3.56c-3.1-4.8-5.43-8.52-8.48-14.46-2.1-4.08-5.41-7.05-7.4-10.77q-1.74-3.27-2.41-4.15c-6.33-8.33-12.48-16.6-19.73-24.17q-12.47-13.01-25.33-25.62a1.51 1.49 17.1 0 1-.41-.76q-.35-1.7-1.92-2.6-.6-.33-.2.23l.25.36q.66.94-.26.25l-23.42-17.48a1.44 1.4-27 0 0-.91-.28q-2.14.08-4.88-3.98a.4.4 0 0 0-.72.11l-.1.35a.09.09 0 0 1-.14.04c-7.59-6.14-15.69-10.69-24.34-15.71q-5.05-2.93-10.38-5.35c-4.32-1.96-8.71-5.25-14.42-6.3q-2.24-.42-3.98-1.49-7.25-4.46-15.45-6.76c-3.35-.94-6.62-.79-10.07-3.37a.98.97 15.2 0 1-.38-.66c-.1-.8-6.52-2.51-7.51-2.79a1.57 1.54-11.8 0 1-.78-.5l-.45-.56a.77.77 0 0 0-1.08-.11l-.29.24a.82.81-54.9 0 1-.8.14q-6.75-2.49-13.86-3.61-.07-.02-.06.05l.01.29a.21.21 0 0 1-.23.22q-27.77-2.13-55.59-.76a.07.07 0 0 1-.07-.06l-.05-.26a.24.23 83.9 0 0-.23-.19l-3.82.05a1.68 1.62 27.5 0 0-.91.27q-1.98 1.23-4.06 1.44c-9.06.9-18.65.07-27.62 1.28q-7.54 1.01-15.07 2.06c-3.61.5-7.2-.06-10.86.52-9.02 1.41-18.55 1.74-27.34 4.04-8.18 2.14-16.38 2.28-25.02 2.14-4.23-.07-7.91 1.37-12.1 1.98-2.55.38-6.28 1.46-9.76 1.06a1.92 1.86 35.4 0 0-.99.15q-1.82.79-3.75.15-.5-.17-1.03-.13c-4.48.32-9.23-.25-13.4.86-5.47 1.45-10.41 3.26-16.46 3.12q-2.9-.06-5.65.19c-3.16.3-6.07-.37-9.17.79-2.24.85-6.53 2.04-8.96 2.03-3.01 0-5.07.59-7.71.64-5.03.09-11.77 1.56-16.54.37q-4.35-1.08-5.25-1.14-4.92-.34-9.8.46c-16.91 2.75-33.44 5.05-50.98 6.46q-22.08 1.78-44.1 4.14c-18.18 1.95-36.37 3.17-54.53 4.92-2.2.22-4.35.15-6.58.19a.43.42 85.7 0 0-.41.48l1.38 11.01.5 13.5c-1.59 61.58-1.5 123.22-2.72 184.8-.55 27.81.92 55.57.41 83.38-.55 30.15.89 65.04-.07 90.51q-.46 12.05.12 23.83a1.27 1.27 0 0 1-1.88 1.17l-5.65-3.15q2.05.07 3.3-1.19a1.3 1.3 0 0 0 .38-.87q.2-4.58.16-6.54-.63-34.05-.09-68.1c.1-6.69-.94-12.85-.41-19.84q1-13.21 1.13-26.46c.06-5.86-.86-14.01-.4-21.16 1.59-24.44.45-49.08.66-73.56q.23-27.66.1-55.32c-.1-20.03-.4-40.11.25-60.13.23-6.94-.25-14.04.16-22.62.54-11.64-1.17-26.59-.64-39.96q.06-1.4-.3-7.05-.31-4.87 1.22-9.56 1.49-.95 2.31-3a.78.77-79.8 0 1 .68-.48q11.27-.55 22.21-3.32c2.65-.68 5.59-.15 8.21-.48 11.16-1.4 25.02-4.18 37.89-4.87 11.21-.59 21.32-3.19 32.2-4.19q10.55-.97 26.24-3.03c15.89-2.09 41.69-4.16 65.27-7.74q.56-.09 3.04.06c1.55.09 2.85-.72 4.18-.84 19.32-1.7 38.51-4.16 57.78-6.32 36.79-4.11 83.79-10.01 125.73-14.42 9.78-1.03 20.61-2.85 29.28-3.53 21.68-1.72 43.67-1.41 65.14 2.75 23.38 4.53 45.72 11.95 66.62 23.47 40.31 22.21 74.46 56.79 94.83 98.29 2.13 4.34 3.1 9.57 5.21 14.33q3.22 7.28 6.6 14.67Z"/><path fill="#ff8700" d="M807.96 256.5q2.03 12.18 2.29 24.49.09 3.98-2.82 5.77a1.17 1.17 0 0 1-.92.14c-5.91-1.6-8.41-2.91-11.18-8.47-1.35-2.7-4.29-5.31-7.48-7.02-7.25-3.87-9.95-12.35-15.51-18.14-3.75-3.91-6.57-8.32-10.75-11.89q-6.66-5.71-11.21-13.26c-1.62-2.7-6.4-1.78-9.2-3.6a1.77 1.72 60.4 0 0-.93-.27h-3.49a.73.72 9.3 0 0-.67.47q-.59 1.67-2.37 1.3c-2.91-.6-3.96-1.07-6.91.04q-2.81 1.06-5.84 1.48a1 .99 11.4 0 0-.69.45s-4.21 1.09-4.92 1.37a1.5 1.45 42.4 0 1-.96.03q-3-.93-5.93.13-.45.16-.77.52c-3.66 4.18-6.4 2.31-10.7 4.1-3.19 1.33-5.54 3.65-8.51 4.87a1.85 1.82-51.5 0 1-.99.12l-3.61-.57a1.4 1.4 0 0 0-.95.19c-5.62 3.45-1.79 9.55-4.95 12.46a.78.78 0 0 1-.81.14q-1.6-.66-2.92-1.75a1.51 1.46 66.8 0 0-.74-.31q-3.48-.39-6.8.61c-4.17 1.24-5.65.61-9.22-1.35q-3.76-2.06-9.2-.87a.06.06 0 0 0-.05.06v.26a.18.17 86.4 0 1-.15.18c-4.2.54-6.83-.92-10.37 2.02q-1.6 1.32-4.02 1.95a1.26 1.21-37 0 1-.92-.11c-3.86-2.11-5.64-1.46-9.81-2.01-5.14-.68-8.58-6.05-14.48-3.96a1.26 1.21-41.4 0 1-.91-.04c-2.44-1.12-6.16-3.23-8.54-1.1q-.58.52-.38-.23.63-2.29-.68-4.18-.62-.91-.89.16l-.4 1.59q-.08.35-.23.02-.84-1.81-1.18-3.79.57-8.86-1.09-17.59c-3.7-19.45-17.87-10.91-25.06-1.25-17.02 22.89-27.05 55.05-31.43 83.34l-1.08 2.38a.54.53 17 0 1-.58.3l-6.44-1.09q-.41-.07-.73-.32l-1.21-.94a.38.37 26.3 0 0-.59.19q-.27.99-1.54.73c-2.28-14.96-16.01-77.79-32.59-81.51a1.37 1.35 37.1 0 0-.93.12q-3.25 1.69-4.06 5.39l-.42-.13a.43.42-82.5 0 0-.54.42l.01.55q.02.6-.24.06-.22-.46-.2-.98.02-.77-.33-.09l-.39.76a.4.4 0 0 1-.6.14l-.72-.57a.61.61 0 0 1-.23-.6q.36-1.96-.1-3.89a.88.86-89.6 0 0-.63-.65q-8.53-2.32-17.36-2.96c-4.39-.31-8.9-2.11-13.01-2.13-2.46-.02-4.38 2.21-6.78 2.65q-3.34.62-6.74.75c-3.13.11-5.96-1.48-9.71-.33a1.1 1.08-38.2 0 1-.89-.1q-2.36-1.37-5.84-.87c-5.57.79-13.34-1.23-20.09-.21-4.42.67-9.03.78-13.5 1.18-3.04.27-5.61-1.26-8.9-1.02-3.42.24-7.26-1.46-11.57-.74q-3.78.64-5.3.46-3.84-.45-7.12-2.64c-1.28-.85-19.49-.13-21.89.31q-4.07.75-8.09 2.63-1.57.73-3.38.19a1.43 1.42 41.7 0 0-.94.05c-4.76 1.94-7.29-.18-11.39-1.12-10.71-2.45-22.56-3.57-34.21-5.73-4.42-.82-5.39-4.54-8.86-6.33q-5.63-2.89-11.63-1.16a1.31 1.31 0 0 1-.96-.1l-8.37-4.25a2 1.99 56 0 0-1.08-.21q-1.33.11-2.31-.64a1.71 1.65-23.1 0 0-.89-.34c-2.98-.29-5.2-1.95-7.78-2.48q-2.55-.51-5.09-.97c-3.68-.67-5.7 2.68-9.39.64a1.9 1.82 57.6 0 0-.93-.23c-3.92.07-5.84-2.61-9.63-2.13a1.39 1.36 57.5 0 1-.91-.21c-3.93-2.5-4.27-6.81-8.65-9.44a1.42 1.41 5.8 0 1-.6-.73q-1.26-3.57-2.84-4.25-7.46-3.2-14.71-6.87c-2.09-1.06-4.11-.72-6.36-1.36a1.4 1.38-8.8 0 1-.76-.55c-2.38-3.48-6.3-7.15-10.92-5.81q-.54.16-.17-.26l.22-.24a.27.26 51.5 0 0 .03-.31c-1.3-2.11-2.55-4.69-5.58-2.94a.87.86 75 0 0-.43.75l-.01 2.28q0 .88-.31.06l-.63-1.63q-.12-.3-.21.01l-.1.34q-.43 1.43-.31-.06l.29-3.6a.34.34 0 0 0-.35-.37l-.28.01a.27.27 0 0 1-.26-.33q.54-2.25-.66-4.19a1.35 1.35 0 0 1-.18-.97q.51-2.61-1.96-2.77l-1.38-11.01a.43.42 85.7 0 1 .41-.48c2.23-.04 4.38.03 6.58-.19 18.16-1.75 36.35-2.97 54.53-4.92q22.02-2.36 44.1-4.14c17.54-1.41 34.07-3.71 50.98-6.46q4.88-.8 9.8-.46.9.06 5.25 1.14c4.77 1.19 11.51-.28 16.54-.37 2.64-.05 4.7-.64 7.71-.64 2.43.01 6.72-1.18 8.96-2.03 3.1-1.16 6.01-.49 9.17-.79q2.75-.25 5.65-.19c6.05.14 10.99-1.67 16.46-3.12 4.17-1.11 8.92-.54 13.4-.86q.53-.04 1.03.13 1.93.64 3.75-.15a1.92 1.86 35.4 0 1 .99-.15c3.48.4 7.21-.68 9.76-1.06 4.19-.61 7.87-2.05 12.1-1.98 8.64.14 16.84 0 25.02-2.14 8.79-2.3 18.32-2.63 27.34-4.04 3.66-.58 7.25-.02 10.86-.52q7.53-1.05 15.07-2.06c8.97-1.21 18.56-.38 27.62-1.28q2.08-.21 4.06-1.44a1.68 1.62 27.5 0 1 .91-.27l3.82-.05a.24.23 83.9 0 1 .23.19l.05.26a.07.07 0 0 0 .07.06q27.82-1.37 55.59.76a.21.21 0 0 0 .23-.22l-.01-.29q-.01-.07.06-.05 7.11 1.12 13.86 3.61a.82.81-54.9 0 0 .8-.14l.29-.24a.77.77 0 0 1 1.08.11l.45.56a1.57 1.54-11.8 0 0 .78.5c.99.28 7.41 1.99 7.51 2.79a.98.97 15.2 0 0 .38.66c3.45 2.58 6.72 2.43 10.07 3.37q8.2 2.3 15.45 6.76 1.74 1.07 3.98 1.49c5.71 1.05 10.1 4.34 14.42 6.3q5.33 2.42 10.38 5.35c8.65 5.02 16.75 9.57 24.34 15.71a.09.09 0 0 0 .14-.04l.1-.35a.4.4 0 0 1 .72-.11q2.74 4.06 4.88 3.98a1.44 1.4-27 0 1 .91.28l23.42 17.48q.92.69.26-.25l-.25-.36q-.4-.56.2-.23 1.57.9 1.92 2.6a1.51 1.49 17.1 0 0 .41.76q12.86 12.61 25.33 25.62c7.25 7.57 13.4 15.84 19.73 24.17q.67.88 2.41 4.15c1.99 3.72 5.3 6.69 7.4 10.77 3.05 5.94 5.38 9.66 8.48 14.46q2.93 4.52 8.11 3.56Z"/><path fill="#ed7b09" d="M142 124.79q-.88 70.63-.76 141.26c.03 20.05-.62 40.08-.54 60.13.02 4.77-.51 11.04-.43 16.43.3 21.96-.49 43.87-.32 65.82.28 36.98-.52 76.81.12 122.24.03 2.33-.3 4.86-.38 7.3q-.02.64-.31.07l-.24-.48a.51.5-20.1 0 0-.58-.26l-2.4.6a.8.78 5.6 0 0-.52.42l-.64 1.3q-.38.79-.44-.09l-.27-3.78q-.33-95.53.78-191.06c.86-74.21.47-148.47.97-222.69q.17-.05.24-.27.09-.23.14.01.46 2.02 2.59 1.76a1.05 1.03 63.8 0 1 .86.3q.87.86 2.13.99Z"/><path fill="#ff6f00" d="M142 124.79q1.58.19 1.04 2.21c.01 82.09-1.26 164.16-1.05 246.25q.02 9.98-.11 20-.91 71.87-.98 143.75c0 3.63-.68 7.01 3.1 9.04l5.65 3.15a1.27 1.27 0 0 0 1.88-1.17q-.58-11.78-.12-23.83c.96-25.47-.48-60.36.07-90.51.51-27.81-.96-55.57-.41-83.38 1.22-61.58 1.13-123.22 2.72-184.8l.88-2.33a.57.57 0 0 1 1.05-.04c7.35 15.58 18.18 29.27 27.43 43.71q2.27 3.53 3.42 5.99c1.49 3.18 3.34 5.08 5.17 7.81a1.59 1.53 29.8 0 1 .26.89v2.22a.5.5 0 0 0 .5.5h.5a.65.64 83.9 0 1 .63.51q1.18 5.71 5.35 9.42c3.29 2.92 5.1 6.69 7.21 10.38 3.28 5.72 6.9 9.74 11.53 13.99 2.29 2.09 3.31 5.06 5.24 7.54 3.74 4.82 10.1 5.25 13.77 10.57q2.85 4.15 5.36 8.53c3.37 5.86 10.39 9.08 15.19 13.77 2.51 2.45 4.65 4.11 8.29 4.89 5.86 1.26 6.9 6.5 11.98 8.13q2.86.92 5.75 1.75c2.08.6 4.71.75 6.98 1.51 5.02 1.68 9.56 1.91 14.69 1.94 2.38.02 30.18.6 30.32-.22a.29.28 3.7 0 1 .27-.23q4.56-.11 8.77-1.78c2.15-.84 3.61-.6 5.77-.57 4.18.06 8.58-1.12 13.01-1.01 7.14.17 13.36-1.68 19.39-2.04q.49-.03.91-.28c4.37-2.69 10.94-.51 15.88-1.73q7.79-1.92 15.21-2.05 3.39-.06 5.58-2.16a.7.7 0 0 1 .67-.16l1.13.32a.38.37-79.7 0 0 .47-.33c.02-.25-.07-.71.39-.69a.21.2-80 0 1 .18.27q-.36 1.11.79 1.73c1.42 8.93 9.24 18.56 15.23 25.05q21.23 23.03 49.27 36.64c5.59 2.71 13.58 5.55 19.02 6.1 11.62 1.17 15.72-6.07 10.71-16.23-5.98-12.11-16.14-22.71-26.54-31.68q2.93-5.66 9.11-6.58a.61.61 0 0 0 .51-.51q.09-.59.98-.58c1.87 4.94 13.1 33.64 20.92 29.28 7.77-4.33 3.87-35.42 2.62-43.49q1.27.26 1.54-.73a.38.37 26.3 0 1 .59-.19l1.21.94q.32.25.73.32l6.44 1.09a.54.53 17 0 0 .58-.3l1.08-2.38c-1.96 11.4-5.16 40.42 6.76 47.17a.81.8 16.7 0 1 .41.75q-.05.79-.31 2.33c-1.75 10.41 9.08 12.65 16.63 11.69 28.01-3.57 57.7-21.79 79.03-39.7 11.36-9.53 23.24-21.58 28.02-35.53q.33-.12.31-.54-.01-.26.17-.07l.28.28a.71.69-62.6 0 1 .19.63c-1.21 6.84 5.11 8.17 10.2 7.63 5.01-.54 8.91.05 14.53-1.92q4.65-1.63 7.21-2.18c6.31-1.34 13.03-1.32 19.09-3.36 7.2-2.43 13.71-3.98 21.27-2.4 6.1 1.27 12.99.54 18.38 2.18 9.01 2.74 14.48 8.79 22.23 15.4 6.07 5.19 15.01.35 22.35.64q2.69.11 5.37.81a.96.96 0 0 0 1.2-.86q.83-12.48-.78-24.96-.26-12.31-2.29-24.49c-.8-5.62-2.45-10.86-3.54-16.41q-.52-2.6-1.48-5.06-1.23-10.76-6.64-20.07a.38.37 69.6 0 1 .25-.56q1.74-.35 2.63 1.67 3 6.83 6.02 14.04a1 1 0 0 0 1.86-.03l2.21-5.73a.71.71 0 0 1 1.22-.18q2.46 3.17 3.95 7.22 5.38 14.64 8.8 29.86c.41 1.85.39 4.7.89 6.97 3.53 15.93 4.55 31.9 4.91 48.78q-.5 35.22-.2 70.44c.57 64.69.24 124-.52 185.39a.1.09-8.3 0 1-.07.09l-.25.08a.34.33 77.7 0 1-.43-.28l-.28-2.22q.46-123.84-.12-247.69c-.09-19.45-1.6-40.45-5.68-57.44a.59.58 61.4 0 0-.97-.29l-4.27 4.13q-1.89 1.38-2.93 3.38a1.6 1.58-34.9 0 0-.17.93c1.75 15.22 3.52 30.23 3.7 45.73.48 43.2 1.23 86.48.43 129.68q-.92 49.75-.72 99.5c.02 6.43-.66 16.3.01 24q.35 4.01 4.14 6.07 2.42 1.51 5.52.18 1.93 1.64 1.24 4.04c-2.04 7.14 1.76 13.9.51 21.28-.67 3.99.87 10.55.95 16.31.15 10.28 1.35 20.64 1.86 30.94l-.32 16.77q-5.14 11.44-6.09 24.02a1.83 1.83 0 0 1-.33.91c-6.12 8.66-10 16.38-15.85 24.06-1.32 1.72-2.85 2.92-4.41 4.44-3.85 3.74-8.32 13.17-14.25 13.49q-3.14.18-5.29-1.48c-2.07-1.59-2.92-4.82-5.47-6.12q-1.44-.74-3.34-1.18-6.73-1.58-10.74-2.08c-1.69-.22-3.24-1.05-4.9-.88-3.5.35-9.79 1.68-12.99.91-2.46-.59-6.53.62-9.35.48q-8.85-.45-17.72-.32-3.6.05-9.33-1.88c-3.63-1.23-6.14-3.71-9.33-5.86-2.76-1.86-5.4-1.7-8.56-2.19-7.6-1.19-14.32-6.65-21.58-7.19-8.05-.59-16.13-2.08-23.97-2.33q-17.61-.54-35.15-2.3-4.51-.45-9.28-.03c-18.11 1.59-36.79 1.36-54.99 1.47-4.07.03-7.82-1.39-11.96-1.4q-13.4-.02-26.82-.01c-4.58 0-8.19-1.84-13.27-.46-5.24 1.42-9.88 1.22-15.04.06-3.75-.84-6.46-.42-10 .15-6.32 1.03-12.2.66-18.36.54-2.59-.04-4.52-1.63-7.43-1.78q-12.84-.66-17.68-1.77-7.92-1.83-21.24-3.07-2.84-.26-5.01.1c-8.8 1.47-17.9 1.49-26.81 1.82-6.22.24-12.52 2.64-17.48 3.25-5.2.63-10.17.23-15.38 1.39-7.26 1.62-12.39 2.68-21.58 5.7q-2.71.89-4.52 1.35c-4.15 1.06-7.76 2.61-11.91 3.31-3.51.59-5.84 1.98-8.15 4.27-3.66 3.64-7.12 6.24-9.6 9.82-1.38 2-3.6 3.12-5.42 4.73a1.35 1.34 73.6 0 0-.45.83c-.43 2.74.84 4.91 2.27 7.61a.45.45 0 0 1-.14.58q-1.85 1.31-2.57 3.48a.53.53 0 0 0 .43.7q1.01.14 2.04.19c3.36.16 4.22 1.36 8.03.59 2.36-.47 4.18 1.57 5.96 2.79 3.03 2.08 7.93 2.78 11.52 3.66a1.88 1.82 73.4 0 1 .84.47c3.42 3.33 6.33 1.86 10.02 2.48 3.62.62 7.21 1.37 10.92 1.55 11.16.54 22.25 1.93 33.34 2.42 7.58.34 15.76.24 23.03 2.61 5.86 1.92 12.35 2.55 17.83 4.16 8.5 2.5 17.73 5.32 26.69 5.18q22.92-.36 45.83-.34.11 0 2.48.32c5.55.77 10.92-1.17 16.75-.18q8 1.36 16.11 2.09a.13.13 0 0 1 .11.1l.07.32a.67.65-2.4 0 0 .56.5q7.59 1 9.95.9c7.56-.31 15.79-.77 21.66 2.44 4.85 2.66 12.37.84 19.22.61 1.95-.07 4.22.3 6.46.08 5.95-.58 11.45.76 17.61-.14q1.2-.18 1.26.61a.53.53 0 0 0 .49.49c5.92.43 11.22-.51 19.22-.03a.44.44 0 0 0 .46-.44c.01-1.76 7.48-.29 8.75-.11 5.24.72 10.37 2.9 15.51 4.61 5.52 1.85 10.83 5.47 16.85 6.65 6.42 1.25 19.38 3.24 26.27.85a1.63 1.59 41.9 0 1 .96-.04c3.9 1.02 7.83-.39 11.62 1.45a1.86 1.79 54.3 0 0 .98.18q13.73-1.24 27.2 1.73a1.34 1.3-12.6 0 1 .75.46q.48.62 1.15.05.08-.07.08.04l-.02.31q-.02.31.23.13l.52-.36a1.37 1.33 25 0 1 .72-.25q7.97-.35 15.15 3.11a.64.64 0 0 1-.12 1.19l-.63.16a.4.4 0 0 0-.26.55l.84 1.86a.59.58 77.2 0 0 .53.34l.34-.01a.63.62-2.5 0 1 .63.57l.16 1.85a.63.63 0 0 0 .56.58q2.95.36 5.92.63c2.34.22 6.25-.05 9.44.79q.48.13.96 0c4.69-1.26 9.57-.64 14.31.07 5.66.84 11.52 3.54 17.23 5.47a.2.19 31 0 1 .08.31l-.17.21a.53.53 0 0 0 .07.75c3.29 2.59 6.9 3.79 10.24 6.4.56.44 4.9 3.25 5.36 2.6a.33.33 0 0 1 .45-.09c3.19 1.97 7.15 3.55 8.9 7.06a1.79 1.75 3.7 0 0 .65.72l5.04 3.18a.75.75 0 0 1 .36.64v.46a.53.52 1.1 0 0 .51.52l5.74.25 2.25.33c-4.77 1.44-8.35.78-13.13.38-62.08-5.17-124.12-12.09-186.12-18.21q-96.76-9.74-193.52-19.5-48.13-4.85-96.23-9.92l-17.25-2.33q-29.65-5.49-55.84-20.34c-13.9-7.87-27.78-17.17-38.22-27.06q-9.17-8.69-18.4-17.31-11.33-11.58-15.62-17.18c-26.06-34.11-44.33-77.08-51.6-118.38q-3.8-21.57-3.78-49.19l.27 3.78q.06.88.44.09l.64-1.3a.8.78 5.6 0 1 .52-.42l2.4-.6a.51.5-20.1 0 1 .58.26l.24.48q.29.57.31-.07c.08-2.44.41-4.97.38-7.3-.64-45.43.16-85.26-.12-122.24-.17-21.95.62-43.86.32-65.82-.08-5.39.45-11.66.43-16.43-.08-20.05.57-40.08.54-60.13q-.12-70.63.76-141.26Zm199.49 333.46q11.57-3.92 17.37-13.61c6.33-10.59 6.53-28.29-.39-38.88-7.91-12.1-22.33-15.65-35.98-15.98q-26.62-.65-53.33-.66a.52.52 0 0 0-.52.5q-1.95 64.53-3.71 129.07-.17 5.92-.01 8.09a.58.58 0 0 0 .54.53q21.19 1.29 42.38 2.24c15.27.69 25.84 1.34 37.36-3.83q17.39-7.81 19.91-27.96c2.56-20.44-4.59-31.93-23.62-38.81a.37.37 0 0 1 0-.7Zm74.98-61.98c-33.62 14.16-43.16 52.64-37.13 85.66 9.71 53.08 65.59 65.24 110.55 54.21a.91.91 0 0 0 .69-.92l-1.28-28.91a.88.88 0 0 0-1.2-.79c-33.59 12.77-72.05 4.64-75.15-37.77-1.13-15.44 4.34-32.91 16.85-42.46 17.15-13.09 41.73-7.02 58.44 3.2a.33.32-71.7 0 0 .49-.25l2.96-29.96a.62.61 13.5 0 0-.4-.64c-24.48-9.22-50.34-11.68-74.82-1.37Zm99.23 144.02a.61.61 0 0 0 .58.61l35.54 1.76a.61.61 0 0 0 .64-.61l.56-147.89a.61.61 0 0 0-.61-.62l-35.04-.36a.61.61 0 0 0-.61.6l-1.06 146.51Zm-42.38 23.07c-1.23-.34-4.19-.7-5 .2q-3.73 4.2-7.1 8.78a.57.57 0 0 0 .44.9c4.26.12 9.14-6.38 11.81-9.37a.31.31 0 0 0-.15-.51Zm-16.08 43.03a.51.51 0 0 1 .55-.5l20.09 1.48a.51.51 0 0 0 .54-.49l.12-3.99a.51.51 0 0 0-.47-.53l-20.35-1.56a.51.51 0 0 1-.47-.52l.33-19.21a.51.51 0 0 1 .54-.5l21.81 1.35a.51.51 0 0 0 .54-.5l.12-3.97a.51.51 0 0 0-.47-.52l-27.76-1.82a.51.51 0 0 0-.55.5l-.65 57.07a.51.51 0 0 0 .47.52l28.57 2.15a.51.51 0 0 0 .55-.51v-4.16a.51.51 0 0 0-.47-.5l-22.84-1.65a.51.51 0 0 1-.47-.51l.27-21.63Zm71.44-4.49c-5.76-6.35-12.94-9.74-19.98-2.27-6.64 7.05-6.14 22.29-2.94 29.85 3.81 8.99 16.26 14.36 23.02 5.4a.33.33 0 0 1 .59.13l.68 3.55a.7.69 87.6 0 0 .6.56l3.57.4a.48.48 0 0 0 .53-.49q-.55-29.46-.07-58.91a.53.53 0 0 0-.48-.54l-4.26-.39a.63.62 2.5 0 0-.68.62l-.03 21.88q0 .82-.55.21Zm134.613-11.99a1.61 1.61 0 0 0-1.585-1.636l-3.02-.047a1.61 1.61 0 0 0-1.635 1.584l-.066 4.2a1.61 1.61 0 0 0 1.585 1.635l3.02.047a1.61 1.61 0 0 0 1.635-1.584l.066-4.2ZM545.26 605.03c8.67-4.31 21.46-4.24 19.75 9.69a1.57 1.56 7.6 0 1-1.77 1.35c-7.36-1.04-19.38-.56-21.96 8.06-4.61 15.36 13.25 23.11 23.75 13.8a.54.54 0 0 1 .89.29l.67 3.04a.97.97 0 0 0 .83.75l3.93.46a.52.51 88.3 0 0 .56-.6q-2.22-14-1.39-22.38c.97-9.84-.13-19.25-11.51-21.14q-7.96-1.33-15.69 1.79a.65.64 71.8 0 0-.38.77l.94 3.5a.98.97 69.1 0 0 1.38.62Zm58.94 36.51.36 19.33a.59.59 0 0 0 .55.58l3.14.27a1.67 1.66 2 0 0 1.81-1.68q-.35-28.53.35-57.04a.46.45-86.7 0 0-.41-.47l-3.34-.34a.77.77 0 0 0-.82.58l-1.07 4.27a.71.71 0 0 1-1.3.19c-7.34-12.39-21.71-6.62-24.59 5.95-2.27 9.94-1.19 23.28 7.43 29.48q7.59 5.46 17.49-1.33.39-.27.4.21Zm39.17 1.93 1.11 3.97a.86.86 0 0 0 .73.63l3.4.43a.59.59 0 0 0 .65-.63c-1.13-13.59-.95-26.53-.8-42.19a.68.67.4 0 0-.68-.68h-4.43a.69.69 0 0 0-.69.7q.15 12.83.09 25.65c-.06 13.47-16.92 16.85-18.26 3.88q-1.02-9.93-.39-31.18a.56.56 0 0 0-.53-.58l-4.48-.28a.55.54-88 0 0-.57.54q-.06 14.01.01 28.01c.05 8.63 4.23 15.68 13.38 16.28 4.2.28 7.34-1.64 9.75-4.87q1.18-1.58 1.71.32Zm19.767-36.76a.66.66 0 0 0-.662-.658l-4.4.016a.66.66 0 0 0-.658.662l.146 41.84a.66.66 0 0 0 .662.657l4.4-.015a.66.66 0 0 0 .658-.662l-.146-41.84Zm16.924 36.337a.26.26 0 0 0-.256-.263l-6.22-.087a.26.26 0 0 0-.263.256l-.103 7.36a.26.26 0 0 0 .256.263l6.22.087a.26.26 0 0 0 .263-.256l.103-7.36Z"/><path fill="#ffb621" d="m143.04 127 1.04.13a1.18 1.17-14.8 0 1 .8.46l4.64 6.09q-1.53 4.69-1.22 9.56.36 5.65.3 7.05c-.53 13.37 1.18 28.32.64 39.96-.41 8.58.07 15.68-.16 22.62-.65 20.02-.35 40.1-.25 60.13q.13 27.66-.1 55.32c-.21 24.48.93 49.12-.66 73.56-.46 7.15.46 15.3.4 21.16q-.13 13.25-1.13 26.46c-.53 6.99.51 13.15.41 19.84q-.54 34.05.09 68.1.04 1.96-.16 6.54a1.3 1.3 0 0 1-.38.87q-1.25 1.26-3.3 1.19c-3.78-2.03-3.1-5.41-3.1-9.04q.07-71.88.98-143.75.13-10.02.11-20c-.21-82.09 1.06-164.16 1.05-246.25Z"/><path fill="#ff7b00" d="M153.29 152q2.47.16 1.96 2.77a1.35 1.35 0 0 0 .18.97q1.2 1.94.66 4.19a.27.27 0 0 0 .26.33l.28-.01a.34.34 0 0 1 .35.37l-.29 3.6q-.12 1.49.31.06l.1-.34q.09-.31.21-.01l.63 1.63q.31.82.31-.06l.01-2.28a.87.86 75 0 1 .43-.75c3.03-1.75 4.28.83 5.58 2.94a.27.26 51.5 0 1-.03.31l-.22.24q-.37.42.17.26c4.62-1.34 8.54 2.33 10.92 5.81a1.4 1.38-8.8 0 0 .76.55c2.25.64 4.27.3 6.36 1.36q7.25 3.67 14.71 6.87 1.58.68 2.84 4.25a1.42 1.41 5.8 0 0 .6.73c4.38 2.63 4.72 6.94 8.65 9.44a1.39 1.36 57.5 0 0 .91.21c3.79-.48 5.71 2.2 9.63 2.13a1.9 1.82 57.6 0 1 .93.23c3.69 2.04 5.71-1.31 9.39-.64q2.54.46 5.09.97c2.58.53 4.8 2.19 7.78 2.48a1.71 1.65-23.1 0 1 .89.34q.98.75 2.31.64a2 1.99 56 0 1 1.08.21l8.37 4.25a1.31 1.31 0 0 0 .96.1q6-1.73 11.63 1.16c3.47 1.79 4.44 5.51 8.86 6.33 11.65 2.16 23.5 3.28 34.21 5.73 4.1.94 6.63 3.06 11.39 1.12a1.43 1.42 41.7 0 1 .94-.05q1.81.54 3.38-.19 4.02-1.88 8.09-2.63c2.4-.44 20.61-1.16 21.89-.31q3.28 2.19 7.12 2.64 1.52.18 5.3-.46c4.31-.72 8.15.98 11.57.74 3.29-.24 5.86 1.29 8.9 1.02 4.47-.4 9.08-.51 13.5-1.18 6.75-1.02 14.52 1 20.09.21q3.48-.5 5.84.87a1.1 1.08-38.2 0 0 .89.1c3.75-1.15 6.58.44 9.71.33q3.4-.13 6.74-.75c2.4-.44 4.32-2.67 6.78-2.65 4.11.02 8.62 1.82 13.01 2.13q8.83.64 17.36 2.96a.88.86-89.6 0 1 .63.65q.46 1.93.1 3.89a.61.61 0 0 0 .23.6l.72.57a.4.4 0 0 0 .6-.14l.39-.76q.35-.68.33.09-.02.52.2.98.26.54.24-.06l-.01-.55a.43.42-82.5 0 1 .54-.42l.42.13q-1.93 8.39-1.4 17Q488.9 283 502 318.46q-.89-.01-.98.58a.61.61 0 0 1-.51.51q-6.18.92-9.11 6.58c-14.3-12.73-37.21-28.25-56.63-30.14-6.29-.61-12.44 3.46-11.06 10.26q-1.15-.62-.79-1.73a.21.2-80 0 0-.18-.27c-.46-.02-.37.44-.39.69a.38.37-79.7 0 1-.47.33l-1.13-.32a.7.7 0 0 0-.67.16q-2.19 2.1-5.58 2.16-7.42.13-15.21 2.05c-4.94 1.22-11.51-.96-15.88 1.73q-.42.25-.91.28c-6.03.36-12.25 2.21-19.39 2.04-4.43-.11-8.83 1.07-13.01 1.01-2.16-.03-3.62-.27-5.77.57q-4.21 1.67-8.77 1.78a.29.28 3.7 0 0-.27.23c-.14.82-27.94.24-30.32.22-5.13-.03-9.67-.26-14.69-1.94-2.27-.76-4.9-.91-6.98-1.51q-2.89-.83-5.75-1.75c-5.08-1.63-6.12-6.87-11.98-8.13-3.64-.78-5.78-2.44-8.29-4.89-4.8-4.69-11.82-7.91-15.19-13.77q-2.51-4.38-5.36-8.53c-3.67-5.32-10.03-5.75-13.77-10.57-1.93-2.48-2.95-5.45-5.24-7.54-4.63-4.25-8.25-8.27-11.53-13.99-2.11-3.69-3.92-7.46-7.21-10.38q-4.17-3.71-5.35-9.42a.65.64 83.9 0 0-.63-.51h-.5a.5.5 0 0 1-.5-.5v-2.22a1.59 1.53 29.8 0 0-.26-.89c-1.83-2.73-3.68-4.63-5.17-7.81q-1.15-2.46-3.42-5.99c-9.25-14.44-20.08-28.13-27.43-43.71a.57.57 0 0 0-1.05.04l-.88 2.33-.5-13.5Z"/><path fill="#fff" d="M595.29 238.5c-.81 24.82-7.73 50.13-17.35 73.02a.29.29 0 0 0 .45.35c19.33-14.8 40.75-27.11 64.47-33.35 8.51-2.24 28.85-4.61 25.39 11.19-4.78 13.95-16.66 26-28.02 35.53-21.33 17.91-51.02 36.13-79.03 39.7-7.55.96-18.38-1.28-16.63-11.69q.26-1.54.31-2.33a.81.8 16.7 0 0-.41-.75c-11.92-6.75-8.72-35.77-6.76-47.17 4.38-28.29 14.41-60.45 31.43-83.34 7.19-9.66 21.36-18.2 25.06 1.25q1.66 8.73 1.09 17.59Zm-69.75 65.75c1.25 8.07 5.15 39.16-2.62 43.49-7.82 4.36-19.05-24.34-20.92-29.28q-13.1-35.46-15.44-73.21-.53-8.61 1.4-17 .81-3.7 4.06-5.39a1.37 1.35 37.1 0 1 .93-.12c16.58 3.72 30.31 66.55 32.59 81.51Z"/><path fill="#ff7b00" d="M810.25 280.99q1.61 12.48.78 24.96a.96.96 0 0 1-1.2.86q-2.68-.7-5.37-.81c-7.34-.29-16.28 4.55-22.35-.64-7.75-6.61-13.22-12.66-22.23-15.4-5.39-1.64-12.28-.91-18.38-2.18-7.56-1.58-14.07-.03-21.27 2.4-6.06 2.04-12.78 2.02-19.09 3.36q-2.56.55-7.21 2.18c-5.62 1.97-9.52 1.38-14.53 1.92-5.09.54-11.41-.79-10.2-7.63a.71.69-62.6 0 0-.19-.63l-.28-.28q-.18-.19-.17.07.02.42-.31.54c3.46-15.8-16.88-13.43-25.39-11.19-23.72 6.24-45.14 18.55-64.47 33.35a.29.29 0 0 1-.45-.35c9.62-22.89 16.54-48.2 17.35-73.02q.34 1.98 1.18 3.79.15.33.23-.02l.4-1.59q.27-1.07.89-.16 1.31 1.89.68 4.18-.2.75.38.23c2.38-2.13 6.1-.02 8.54 1.1a1.26 1.21-41.4 0 0 .91.04c5.9-2.09 9.34 3.28 14.48 3.96 4.17.55 5.95-.1 9.81 2.01a1.26 1.21-37 0 0 .92.11q2.42-.63 4.02-1.95c3.54-2.94 6.17-1.48 10.37-2.02a.18.17 86.4 0 0 .15-.18v-.26a.06.06 0 0 1 .05-.06q5.44-1.19 9.2.87c3.57 1.96 5.05 2.59 9.22 1.35q3.32-1 6.8-.61a1.51 1.46 66.8 0 1 .74.31q1.32 1.09 2.92 1.75a.78.78 0 0 0 .81-.14c3.16-2.91-.67-9.01 4.95-12.46a1.4 1.4 0 0 1 .95-.19l3.61.57a1.85 1.82-51.5 0 0 .99-.12c2.97-1.22 5.32-3.54 8.51-4.87 4.3-1.79 7.04.08 10.7-4.1q.32-.36.77-.52 2.93-1.06 5.93-.13a1.5 1.45 42.4 0 0 .96-.03c.71-.28 4.92-1.37 4.92-1.37a1 .99 11.4 0 1 .69-.45q3.03-.42 5.84-1.48c2.95-1.11 4-.64 6.91-.04q1.78.37 2.37-1.3a.73.72 9.3 0 1 .67-.47h3.49a1.77 1.72 60.4 0 1 .93.27c2.8 1.82 7.58.9 9.2 3.6q4.55 7.55 11.21 13.26c4.18 3.57 7 7.98 10.75 11.89 5.56 5.79 8.26 14.27 15.51 18.14 3.19 1.71 6.13 4.32 7.48 7.02 2.77 5.56 5.27 6.87 11.18 8.47a1.17 1.17 0 0 0 .92-.14q2.91-1.79 2.82-5.77Z"/><path fill="#ffb621" d="M827.29 570.5q.49 4.5-1.06 8.18-3.1 1.33-5.52-.18c-.39-9.53-.52-19.07-.94-28.6-.26-5.88.77-12.61.69-17.59q-.35-20.79-.16-29.62c.17-7.68-.52-16.51-.59-22.25-.11-9.15-.19-16.17.19-27.24.3-8.8-1.2-17.59-.97-26.06q.54-19.83.2-39.66c-.13-7.94 1.23-15.72.66-23.73-.31-4.45.19-10.58.21-13.37.14-16.76.65-33.83-.07-50.32q-.74-16.94-1.88-28.87-.13-1.4-1.8-1.98l4.27-4.13a.59.58 61.4 0 1 .97.29c4.08 16.99 5.59 37.99 5.68 57.44q.58 123.85.12 247.69Z"/><path fill="#ff9d04" d="M816.25 269.21q1.67.58 1.8 1.98 1.14 11.93 1.88 28.87c.72 16.49.21 33.56.07 50.32-.02 2.79-.52 8.92-.21 13.37.57 8.01-.79 15.79-.66 23.73q.34 19.83-.2 39.66c-.23 8.47 1.27 17.26.97 26.06-.38 11.07-.3 18.09-.19 27.24.07 5.74.76 14.57.59 22.25q-.19 8.83.16 29.62c.08 4.98-.95 11.71-.69 17.59.42 9.53.55 19.07.94 28.6q-3.79-2.06-4.14-6.07c-.67-7.7.01-17.57-.01-24q-.2-49.75.72-99.5c.8-43.2.05-86.48-.43-129.68-.18-15.5-1.95-30.51-3.7-45.73a1.6 1.58-34.9 0 1 .17-.93q1.04-2 2.93-3.38Z"/><path fill="#ed7b09" d="M867.96 307.5q1.48 15.23 1.51 22.5c.61 141.75.61 283.5.49 425.25l-.26.71q-.07.18-.11-.01-2.1-9.57-1.53-19.36a.66.64 13.3 0 0-.41-.64q-1.25-.52-1.45-1.75-.65-4.22-2.62-7.33c-2.75-4.35-2.61-11.04-8.04-12.8a1.51 1.5 80.8 0 1-.76-.55c-1.6-2.14-6.67-10.93-8.59-11.43a1.02 1.02 0 0 1-.69-.61l-1.82-4.41q-.35-.87.57-.72l.96.14a.44.43 87.4 0 0 .49-.54l-2.47-9.17a1.04 1.03-.9 0 0-.77-.74l-3.75-.9a1.02 1.01-7.9 0 1-.67-.5q-2.02-3.62-5.08-6.49-.66-.61-.77.28l-.25 2.06q-.09.72-.19 0-.46-3.2-.21-6.45a1.57 1.54 33.7 0 0-.18-.87q-.83-1.52-.23-3a1.83 1.75-39.6 0 0 .11-.96c-.99-6.35.56-12.28-.45-17.96-.51-10.3-1.71-20.66-1.86-30.94-.08-5.76-1.62-12.32-.95-16.31 1.25-7.38-2.55-14.14-.51-21.28q.69-2.4-1.24-4.04 1.55-3.68 1.06-8.18l.28 2.22a.34.33 77.7 0 0 .43.28l.25-.08a.1.09-8.3 0 0 .07-.09c.76-61.39 1.09-120.7.52-185.39q-.3-35.22.2-70.44l.27 3.03a.51.51 0 0 0 .51.47h8.64a1.08 1.06 19 0 0 .84-.4l3.09-3.83a.77.76 25.9 0 1 .77-.26l.97.23a1.08 1.07 30.5 0 0 .92-.23c3.03-2.61 6.38-4.69 9.53-7.16q1.6-1.26 3.72-1.64a1.22 1.21 11.2 0 0 .83-.55l1.93-3.07a.56.56 0 0 0-.3-.83l-.56-.19a.46.46 0 0 1-.31-.52l1.43-8.3q.17-.94.6-.09.99 1.96.53 4.22a.93.91-61 0 0 .22.8q1.08 1.19 2.69 1.48a.96.96 0 0 1 .75.69l1.85 6.65Z"/><path fill="#fff" d="M491.4 326.13c10.4 8.97 20.56 19.57 26.54 31.68 5.01 10.16.91 17.4-10.71 16.23-5.44-.55-13.43-3.39-19.02-6.1q-28.04-13.61-49.27-36.64c-5.99-6.49-13.81-16.12-15.23-25.05-1.38-6.8 4.77-10.87 11.06-10.26 19.42 1.89 42.33 17.41 56.63 30.14ZM341.49 458.25a.37.37 0 0 0 0 .7c19.03 6.88 26.18 18.37 23.62 38.81q-2.52 20.15-19.91 27.96c-11.52 5.17-22.09 4.52-37.36 3.83q-21.19-.95-42.38-2.24a.58.58 0 0 1-.54-.53q-.16-2.17.01-8.09 1.76-64.54 3.71-129.07a.52.52 0 0 1 .52-.5q26.71.01 53.33.66c13.65.33 28.07 3.88 35.98 15.98 6.92 10.59 6.72 28.29.39 38.88q-5.8 9.69-17.37 13.61Zm-12.56-35.16c-3.14-8.29-21.79-7.62-28.64-7.53a.47.47 0 0 0-.46.46l-.81 27.71a.53.53 0 0 0 .48.54c12.89 1.28 37.59.28 29.43-21.18Zm-30.53 79.22q7.72.82 15.42.68c11.89-.21 20.79-7.2 18.02-20.07-3.09-14.31-22.17-13.68-32.99-13.27a.48.48 0 0 0-.47.47l-.88 31.16a1.01 1.01 0 0 0 .9 1.03Zm80.94-20.38c-6.03-33.02 3.51-71.5 37.13-85.66 24.48-10.31 50.34-7.85 74.82 1.37a.62.61 13.5 0 1 .4.64l-2.96 29.96a.33.32-71.7 0 1-.49.25c-16.71-10.22-41.29-16.29-58.44-3.2-12.51 9.55-17.98 27.02-16.85 42.46 3.1 42.41 41.56 50.54 75.15 37.77a.88.88 0 0 1 1.2.79l1.28 28.91a.91.91 0 0 1-.69.92c-44.96 11.03-100.84-1.13-110.55-54.21Zm136.36 58.36 1.06-146.51a.61.61 0 0 1 .61-.6l35.04.36a.61.61 0 0 1 .61.62l-.56 147.89a.61.61 0 0 1-.64.61l-35.54-1.76a.61.61 0 0 1-.58-.61Z"/><path fill="#ff6f00" d="M300.29 415.56c6.85-.09 25.5-.76 28.64 7.53 8.16 21.46-16.54 22.46-29.43 21.18a.53.53 0 0 1-.48-.54l.81-27.71a.47.47 0 0 1 .46-.46Zm-1.89 86.75a1.01 1.01 0 0 1-.9-1.03l.88-31.16a.48.48 0 0 1 .47-.47c10.82-.41 29.9-1.04 32.99 13.27 2.77 12.87-6.13 19.86-18.02 20.07q-7.7.14-15.42-.68Z"/><path fill="#fff" d="M468.32 563.56c.81-.9 3.77-.54 5-.2a.31.31 0 0 1 .15.51c-2.67 2.99-7.55 9.49-11.81 9.37a.57.57 0 0 1-.44-.9q3.37-4.58 7.1-8.78Zm-11.08 42.83-.27 21.63a.51.51 0 0 0 .47.51l22.84 1.65a.51.51 0 0 1 .47.5v4.16a.51.51 0 0 1-.55.51l-28.57-2.15a.51.51 0 0 1-.47-.52l.65-57.07a.51.51 0 0 1 .55-.5l27.76 1.82a.51.51 0 0 1 .47.52l-.12 3.97a.51.51 0 0 1-.54.5l-21.81-1.35a.51.51 0 0 0-.54.5l-.33 19.21a.51.51 0 0 0 .47.52l20.35 1.56a.51.51 0 0 1 .47.53l-.12 3.99a.51.51 0 0 1-.54.49l-20.09-1.48a.51.51 0 0 0-.55.5Zm71.99-4.7.03-21.88a.63.62 2.5 0 1 .68-.62l4.26.39a.53.53 0 0 1 .48.54q-.48 29.45.07 58.91a.48.48 0 0 1-.53.49l-3.57-.4a.7.69 87.6 0 1-.6-.56l-.68-3.55a.33.33 0 0 0-.59-.13c-6.76 8.96-19.21 3.59-23.02-5.4-3.2-7.56-3.7-22.8 2.94-29.85 7.04-7.47 14.22-4.08 19.98 2.27q.55.61.55-.21Zm-15.53 30.36c5.25 5.24 13.33 2.62 15.09-3.81 1.28-4.66.88-17.35-.83-21.22-1.9-4.28-6.2-7.73-11.1-6.53-7.14 1.75-8.09 12.02-7.7 18.23.35 5.62.78 9.59 4.54 13.33Z"/><rect width="6.24" height="7.42" x="-3.12" y="-3.71" fill="#fff" rx="1.61" transform="rotate(.9 -37354.5 42320.934)"/><path fill="#fff" d="M565.01 614.72c1.71-13.93-11.08-14-19.75-9.69a.98.97 69.1 0 1-1.38-.62l-.94-3.5a.65.64 71.8 0 1 .38-.77q7.73-3.12 15.69-1.79c11.38 1.89 12.48 11.3 11.51 21.14q-.83 8.38 1.39 22.38a.52.51 88.3 0 1-.56.6l-3.93-.46a.97.97 0 0 1-.83-.75l-.67-3.04a.54.54 0 0 0-.89-.29c-10.5 9.31-28.36 1.56-23.75-13.8 2.58-8.62 14.6-9.1 21.96-8.06a1.57 1.56 7.6 0 0 1.77-1.35Zm-18.36 12.52c-2.27 12.56 17.86 14.35 18.61 2.26q.18-2.97-.35-8.11a.67.67 0 0 0-.55-.59c-5.83-1.02-16.24-1.73-17.71 6.44Z"/><path fill="#ff6f00" d="M513.7 632.05c-3.76-3.74-4.19-7.71-4.54-13.33-.39-6.21.56-16.48 7.7-18.23 4.9-1.2 9.2 2.25 11.1 6.53 1.71 3.87 2.11 16.56.83 21.22-1.76 6.43-9.84 9.05-15.09 3.81Z"/><path fill="#fff" d="M603.8 641.33q-9.9 6.79-17.49 1.33c-8.62-6.2-9.7-19.54-7.43-29.48 2.88-12.57 17.25-18.34 24.59-5.95a.71.71 0 0 0 1.3-.19l1.07-4.27a.77.77 0 0 1 .82-.58l3.34.34a.46.45-86.7 0 1 .41.47q-.7 28.51-.35 57.04a1.67 1.66 2 0 1-1.81 1.68l-3.14-.27a.59.59 0 0 1-.55-.58l-.36-19.33q-.01-.48-.4-.21Zm-11.79-36c-14.04 2.5-10.41 44.43 8.5 33.13q3.71-2.22 3.73-4.95c.03-5.62 1.17-16.14-1.07-21.1-1.97-4.36-6.13-7.97-11.16-7.08Zm51.36 38.14q-.53-1.9-1.71-.32c-2.41 3.23-5.55 5.15-9.75 4.87-9.15-.6-13.33-7.65-13.38-16.28q-.07-14-.01-28.01a.55.54-88 0 1 .57-.54l4.48.28a.56.56 0 0 1 .53.58q-.63 21.25.39 31.18c1.34 12.97 18.2 9.59 18.26-3.88q.06-12.82-.09-25.65a.69.69 0 0 1 .69-.7h4.43a.68.67.4 0 1 .68.68c-.15 15.66-.33 28.6.8 42.19a.59.59 0 0 1-.65.63l-3.4-.43a.86.86 0 0 1-.73-.63l-1.11-3.97Z"/><path fill="#ff6f00" d="M600.51 638.46c-18.91 11.3-22.54-30.63-8.5-33.13 5.03-.89 9.19 2.72 11.16 7.08 2.24 4.96 1.1 15.48 1.07 21.1q-.02 2.73-3.73 4.95Z"/><rect width="5.72" height="43.16" x="-2.86" y="-21.58" fill="#fff" rx=".66" transform="rotate(-.2 180135.608 -188862.328)"/><path fill="#ff6f00" d="M565.26 629.5c-.75 12.09-20.88 10.3-18.61-2.26 1.47-8.17 11.88-7.46 17.71-6.44a.67.67 0 0 1 .55.59q.53 5.14.35 8.11Z"/><rect width="6.74" height="7.88" x="-3.37" y="-3.94" fill="#fff" rx=".26" transform="rotate(.8 -45975.97 48783.323)"/><path fill="#ff8700" d="M830.79 651.25c1.01 5.68-.54 11.61.45 17.96a1.83 1.75-39.6 0 1-.11.96q-.6 1.48.23 3a1.57 1.54 33.7 0 1 .18.87q-.25 3.25.21 6.45.1.72.19 0l.25-2.06q.11-.89.77-.28 3.06 2.87 5.08 6.49a1.02 1.01-7.9 0 0 .67.5l3.75.9a1.04 1.03-.9 0 1 .77.74l2.47 9.17a.44.43 87.4 0 1-.49.54l-.96-.14q-.92-.15-.57.72l1.82 4.41a1.02 1.02 0 0 0 .69.61c1.92.5 6.99 9.29 8.59 11.43a1.51 1.5 80.8 0 0 .76.55c5.43 1.76 5.29 8.45 8.04 12.8q1.97 3.11 2.62 7.33.2 1.23 1.45 1.75a.66.64 13.3 0 1 .41.64q-.57 9.79 1.53 19.36.04.19.11.01l.26-.71.08 40.5-.1 7.68a1.03 1-18.3 0 1-.41.79q-14.87 10.89-29.96 21.34-9.49 6.57-15.57 9.23l-2.25-.33q1.37-.12 2.74-.43 1.28-.3-.03-.29l-2.44.02q-.35 0-.11-.26.43-.47-.06-.88a.61.61 0 0 1-.01-.91l2.53-2.33a1.88 1.81-70 0 1 .92-.45c1.32-.21 3.94-2.08 2.14-3.5a.59.58 41.9 0 0-.78.04l-.34.34a.56.55 45.4 0 1-.8-.01c-1.22-1.26-5.91-3.86-4.39-5.74a.81.78-38.2 0 0 .11-.81c-1.88-4.38-1.58-11.77-1.45-16.5.04-1.62-1.24-3.81-1.28-6.07-.09-5.31-1.82-9.79.66-15.46q.2-.45.17-.95-.44-5.8 1.41-11.14c2.41-6.97 3.03-13.51 3.16-20.84.04-2.71 1.18-5.13 1.9-7.7a1.83 1.78-46.4 0 0-.01-.97l-.35-1.26a1.69 1.64 46.4 0 1 .01-.93q2.5-8.07 1.52-16.34c-.44-3.75 1.93-6.18 1.36-10.52-.1-.75-.81-4.88.02-5.12a.74.73-89.1 0 0 .48-.47c1.03-3.15 2.95-7.05 2.27-10.38-.58-2.88-2.03-6.07-.66-8.92a1.45 1.43-39.3 0 0 .1-.93c-1.42-5.92.38-10.8-.07-16.73l.32-16.77Z"/><path fill="#ff7b00" d="M830.47 668.02c.45 5.93-1.35 10.81.07 16.73a1.45 1.43-39.3 0 1-.1.93c-1.37 2.85.08 6.04.66 8.92.68 3.33-1.24 7.23-2.27 10.38a.74.73-89.1 0 1-.48.47c-.83.24-.12 4.37-.02 5.12.57 4.34-1.8 6.77-1.36 10.52q.98 8.27-1.52 16.34a1.69 1.64 46.4 0 0-.01.93l.35 1.26a1.83 1.78-46.4 0 1 .01.97c-.72 2.57-1.86 4.99-1.9 7.7-.13 7.33-.75 13.87-3.16 20.84q-1.85 5.34-1.41 11.14.03.5-.17.95c-2.48 5.67-.75 10.15-.66 15.46.04 2.26 1.32 4.45 1.28 6.07-.13 4.73-.43 12.12 1.45 16.5a.81.78-38.2 0 1-.11.81c-1.52 1.88 3.17 4.48 4.39 5.74a.56.55 45.4 0 0 .8.01l.34-.34a.59.58 41.9 0 1 .78-.04c1.8 1.42-.82 3.29-2.14 3.5a1.88 1.81-70 0 0-.92.45l-2.53 2.33a.61.61 0 0 0 .01.91q.49.41.06.88-.24.26.11.26l2.44-.02q1.31-.01.03.29-1.37.31-2.74.43l-5.74-.25a.53.52 1.1 0 1-.51-.52v-.46a.75.75 0 0 0-.36-.64l-5.04-3.18a1.79 1.75 3.7 0 1-.65-.72c-1.75-3.51-5.71-5.09-8.9-7.06a.33.33 0 0 0-.45.09c-.46.65-4.8-2.16-5.36-2.6-3.34-2.61-6.95-3.81-10.24-6.4a.53.53 0 0 1-.07-.75l.17-.21a.2.19 31 0 0-.08-.31c-5.71-1.93-11.57-4.63-17.23-5.47-4.74-.71-9.62-1.33-14.31-.07q-.48.13-.96 0c-3.19-.84-7.1-.57-9.44-.79q-2.97-.27-5.92-.63a.63.63 0 0 1-.56-.58l-.16-1.85a.63.62-2.5 0 0-.63-.57l-.34.01a.59.58 77.2 0 1-.53-.34l-.84-1.86a.4.4 0 0 1 .26-.55l.63-.16a.64.64 0 0 0 .12-1.19q-7.18-3.46-15.15-3.11a1.37 1.33 25 0 0-.72.25l-.52.36q-.25.18-.23-.13l.02-.31q0-.11-.08-.04-.67.57-1.15-.05a1.34 1.3-12.6 0 0-.75-.46q-13.47-2.97-27.2-1.73a1.86 1.79 54.3 0 1-.98-.18c-3.79-1.84-7.72-.43-11.62-1.45a1.63 1.59 41.9 0 0-.96.04c-6.89 2.39-19.85.4-26.27-.85-6.02-1.18-11.33-4.8-16.85-6.65-5.14-1.71-10.27-3.89-15.51-4.61-1.27-.18-8.74-1.65-8.75.11a.44.44 0 0 1-.46.44c-8-.48-13.3.46-19.22.03a.53.53 0 0 1-.49-.49q-.06-.79-1.26-.61c-6.16.9-11.66-.44-17.61.14-2.24.22-4.51-.15-6.46-.08-6.85.23-14.37 2.05-19.22-.61-5.87-3.21-14.1-2.75-21.66-2.44q-2.36.1-9.95-.9a.67.65-2.4 0 1-.56-.5l-.07-.32a.13.13 0 0 0-.11-.1q-8.11-.73-16.11-2.09c-5.83-.99-11.2.95-16.75.18q-2.37-.32-2.48-.32-22.91-.02-45.83.34c-8.96.14-18.19-2.68-26.69-5.18-5.48-1.61-11.97-2.24-17.83-4.16-7.27-2.37-15.45-2.27-23.03-2.61-11.09-.49-22.18-1.88-33.34-2.42-3.71-.18-7.3-.93-10.92-1.55-3.69-.62-6.6.85-10.02-2.48a1.88 1.82 73.4 0 0-.84-.47c-3.59-.88-8.49-1.58-11.52-3.66-1.78-1.22-3.6-3.26-5.96-2.79-3.81.77-4.67-.43-8.03-.59q-1.03-.05-2.04-.19a.53.53 0 0 1-.43-.7q.72-2.17 2.57-3.48a.45.45 0 0 0 .14-.58c-1.43-2.7-2.7-4.87-2.27-7.61a1.35 1.34 73.6 0 1 .45-.83c1.82-1.61 4.04-2.73 5.42-4.73 2.48-3.58 5.94-6.18 9.6-9.82 2.31-2.29 4.64-3.68 8.15-4.27 4.15-.7 7.76-2.25 11.91-3.31q1.81-.46 4.52-1.35c9.19-3.02 14.32-4.08 21.58-5.7 5.21-1.16 10.18-.76 15.38-1.39 4.96-.61 11.26-3.01 17.48-3.25 8.91-.33 18.01-.35 26.81-1.82q2.17-.36 5.01-.1 13.32 1.24 21.24 3.07 4.84 1.11 17.68 1.77c2.91.15 4.84 1.74 7.43 1.78 6.16.12 12.04.49 18.36-.54 3.54-.57 6.25-.99 10-.15 5.16 1.16 9.8 1.36 15.04-.06 5.08-1.38 8.69.46 13.27.46q13.42-.01 26.82.01c4.14.01 7.89 1.43 11.96 1.4 18.2-.11 36.88.12 54.99-1.47q4.77-.42 9.28.03 17.54 1.76 35.15 2.3c7.84.25 15.92 1.74 23.97 2.33 7.26.54 13.98 6 21.58 7.19 3.16.49 5.8.33 8.56 2.19 3.19 2.15 5.7 4.63 9.33 5.86q5.73 1.93 9.33 1.88 8.87-.13 17.72.32c2.82.14 6.89-1.07 9.35-.48 3.2.77 9.49-.56 12.99-.91 1.66-.17 3.21.66 4.9.88q4.01.5 10.74 2.08 1.9.44 3.34 1.18c2.55 1.3 3.4 4.53 5.47 6.12q2.15 1.66 5.29 1.48c5.93-.32 10.4-9.75 14.25-13.49 1.56-1.52 3.09-2.72 4.41-4.44 5.85-7.68 9.73-15.4 15.85-24.06a1.83 1.83 0 0 0 .33-.91q.95-12.58 6.09-24.02Z"/><path fill="#aeb2b4" d="M205.29 720.5q9.23 8.62 18.4 17.31c10.44 9.89 24.32 19.19 38.22 27.06q26.19 14.85 55.84 20.34c-6.26 2.02-10.35-1.82-15.74-.49-2.59.63-5.45-1-7.24-1.43-8.51-2.03-17.62-2.97-25.62-4.75q-13.52-3-27.22-5.1c-3.84-.59-7.93-1.68-11.67-2.24q-10.49-1.56-19.87-4.65c-3.06-1-6.57-.97-9.83-2.1-4.92-1.71-9.9-1.74-14.88-2.96a1.09 1.05 82.1 0 1-.7-.55c-1.18-2.29-3.52-2.3-5.77-3.05a1.24 1.24 0 0 1-.71-.61q-.97-1.92-1.92-3.85c-.76-1.54-.45-3.34-1.91-4.87a.98.97-25.9 0 0-.86-.29q-3.32.48-6.52-.27-1.7-.84-3.45-1.5c-2.55-.97-4.89-.34-7.59-.38a1.68 1.66-26.9 0 1-.91-.29c-2.46-1.63-4.79-.86-7.09-1.5q-5.11-1.42-10.13-3.11-.43-.15-.88-.08l-2.77.45a.98.97 73.1 0 1-1.03-.55c-1.36-2.9 8.59-3.45 10.24-3.44a1.08 1.07 24 0 0 .76-.29l.71-.68a1.29 1.27-66.9 0 1 .85-.35c2.87-.05 5.25.59 8.09-.19q3.29-.9 6.69-1.44a.84.82 4.6 0 0 .66-.55c.69-2.04 1.44-3.3 3.57-4.14q5.51-2.15 11.27-3.3 9.87-1.97 11.31-2.29 8.01-1.78 16.21-2.32.99-.06 1.49-1.55Z"/><path fill="#d7d8d7" d="M145.25 733.16q-.49.82-1.55.73-2.96-.23-.48-.78 1.16-.25 2.42-.33.67-.04.03.17l-.25.08a.36.28-75.3 0 0-.17.13ZM167.29 748q3.2.75 6.52.27a.98.97-25.9 0 1 .86.29c1.46 1.53 1.15 3.33 1.91 4.87q.95 1.93 1.92 3.85a1.24 1.24 0 0 0 .71.61c2.25.75 4.59.76 5.77 3.05a1.09 1.05 82.1 0 0 .7.55c4.98 1.22 9.96 1.25 14.88 2.96 3.26 1.13 6.77 1.1 9.83 2.1q9.38 3.09 19.87 4.65c3.74.56 7.83 1.65 11.67 2.24q13.7 2.1 27.22 5.1c8 1.78 17.11 2.72 25.62 4.75 1.79.43 4.65 2.06 7.24 1.43 5.39-1.33 9.48 2.51 15.74.49l17.25 2.33q-.41.09-.71.36a.37.36 36.9 0 0 .09.6c4.62 2.25 7.62 2.38 13.34 2.59 4.46.17 8.45 1.96 13.12 2.26q4.01.26 6.69.83 3.67.77 6.73 1.03 15.88 1.36 29.9 3.94c4.29.79 8.97.69 13.46 1.33 6.31.88 12.47.86 18.65 1.91q6.96 1.19 13.97 2.07c8.07 1.03 20.25 3.07 30.58 3.44 4.39.15 9.19.76 15.56 1.96 4.05.77 8.49.39 11.81.66q13.37 1.07 26.71 2.32c4.39.42 10.31.37 15.45 1.12q5.18.76 8.88.86c1.06.03 9.07.18 9.3.67a.32.3 78.4 0 0 .26.18q17.22 1.28 34.48 1.73c1.48.04 3.41-.97 4.69.33a1.21 1.2-22.8 0 0 .84.34c3.22-.05 9.96 1.38 13.37-.76q.43-.27.94-.29l1.64-.06c62 6.12 124.04 13.04 186.12 18.21 4.78.4 8.36 1.06 13.13-.38q6.08-2.66 15.57-9.23 15.09-10.45 29.96-21.34a1.03 1-18.3 0 0 .41-.79l.1-7.68c3.12-.55 6.54 3.61 8.75 5.46a1.31 1.3-25.8 0 0 .85.29h.27a.65.61 65.2 0 1 .47.19c8.56 8.72 19.78 21.73 7.33 33.57-2.21 2.1-6.59 3.51-9.65 4.04-6.42 1.12-12.69 3.38-19.24 3.25q-2.88-.06-6.14.36c-6.31.81-12.85.25-18.67.51-7.85.35-13.83-1.36-20.97-1.9q-3.87-.29-8-1.25c-7.69-1.79-14.96-1.37-22.62-2.68-6.15-1.06-12.26-.73-18.43-1.83q-7.91-1.4-15.98-.73c-1.88.15-4.03-.83-6.04-.78q-12.86.36-21.47-1.49c-5.14-1.11-8.95-1.22-13.71-1.67q-14.14-1.35-28.27-2.76c-.68-.07-1.5-.39-2.05-.4q-22.23-.37-44.39-2.23-8.28-.69-18.08-.96c-11.46-.32-24.03-1.53-34.28-1.93-7.23-.28-14.43-.39-21.61-1.06q-26.8-2.51-39.79-3.36c-15.93-1.04-27.65-2.63-44.83-3.78q-1.23-.08-4.2-.95c-2.05-.61-4.23-.32-6.04-.59q-7.19-1.07-14.43-1.74a1.15 1.1-60.6 0 0-.83.25c-.51.4-14.75-2.33-17.98-2.88-3.53-.61-7.42-.63-10.66-1.14-15.73-2.48-31.45-4.79-47.25-6.77-7.32-.92-14.88-2.26-23.18-3.23-8.1-.95-16.19-2.94-24.67-3.31q-4.74-.21-17.23-3.08c-2.89-.67-14.83-1.87-16.2-3.15a1.75 1.68-17.6 0 0-.85-.42c-5.68-1.03-10.72-2.04-17.02-2.87-2.94-.38-5.77-1.41-8.64-1.65-5.8-.49-12.86-2.16-16.97-2.87q-8.12-1.41-16.26-2.74a.42.41-6.9 0 1-.3-.23c-.21-.44-19.02-2.71-21.03-3.05q-11.66-1.98-22.99-5.48-4.64-1.43-3.71-6.3a1.21 1.21 0 0 0-.19-.9c-1.6-2.34-4.75-.79-5.63-3.04a1.17 1.14 88 0 0-.69-.66q-.72-.26-1.2-.94-.27-.39.2-.38l.5.01a.19.19 0 0 0 .19-.24q-.5-2.04-2.39-2.61a.9.89-1.2 0 1-.6-.57q-.91-2.64-3.76-2.36a.38.38 0 0 1-.4-.28q-.38-1.43-1.79-2.44Z"/><path fill="#aeb2b4" d="M335 787.54q48.1 5.07 96.23 9.92 96.76 9.76 193.52 19.5l-1.64.06q-.51.02-.94.29c-3.41 2.14-10.15.71-13.37.76a1.21 1.2-22.8 0 1-.84-.34c-1.28-1.3-3.21-.29-4.69-.33q-17.26-.45-34.48-1.73a.32.3 78.4 0 1-.26-.18c-.23-.49-8.24-.64-9.3-.67q-3.7-.1-8.88-.86c-5.14-.75-11.06-.7-15.45-1.12q-13.34-1.25-26.71-2.32c-3.32-.27-7.76.11-11.81-.66-6.37-1.2-11.17-1.81-15.56-1.96-10.33-.37-22.51-2.41-30.58-3.44q-7.01-.88-13.97-2.07c-6.18-1.05-12.34-1.03-18.65-1.91-4.49-.64-9.17-.54-13.46-1.33q-14.02-2.58-29.9-3.94-3.06-.26-6.73-1.03-2.68-.57-6.69-.83c-4.67-.3-8.66-2.09-13.12-2.26-5.72-.21-8.72-.34-13.34-2.59a.37.36 36.9 0 1-.09-.6q.3-.27.71-.36Z"/></svg>